<svg xmlns="http://www.w3.org/2000/svg" xmlns:xlink="http://www.w3.org/1999/xlink" width="816" zoomAndPan="magnify" viewBox="0 0 612 647.999998" height="864" preserveAspectRatio="xMidYMid meet" version="1.0"><defs><g/></defs><g fill="#000000" fill-opacity="1"><g transform="translate(27.818181, 107.086057)"><g><path d="M 20.21875 -15.078125 L 16.15625 -15.078125 L 16.15625 -5.96875 C 16.15625 -4.34375 16.242188 -3.117188 16.421875 -2.296875 C 16.609375 -1.484375 16.863281 -0.753906 17.1875 -0.109375 C 17.1875 -0.0664062 17.191406 -0.0351562 17.203125 -0.015625 C 17.222656 -0.00390625 17.234375 0 17.234375 0 L 1.84375 0 C 1.84375 0 1.847656 -0.00390625 1.859375 -0.015625 C 1.878906 -0.0351562 1.890625 -0.0664062 1.890625 -0.109375 C 2.222656 -0.753906 2.476562 -1.484375 2.65625 -2.296875 C 2.832031 -3.117188 2.921875 -4.34375 2.921875 -5.96875 L 2.921875 -28.84375 C 2.921875 -30.46875 2.8125 -31.6875 2.59375 -32.5 C 2.382812 -33.3125 2.046875 -34.046875 1.578125 -34.703125 C 1.578125 -34.734375 1.566406 -34.757812 1.546875 -34.78125 C 1.523438 -34.800781 1.515625 -34.8125 1.515625 -34.8125 L 30.140625 -34.8125 C 33.179688 -34.8125 35.441406 -34.257812 36.921875 -33.15625 C 38.398438 -32.050781 39.140625 -30.019531 39.140625 -27.0625 L 39.140625 -20.65625 C 39.140625 -18.125 38.609375 -16.585938 37.546875 -16.046875 C 36.484375 -15.503906 35.242188 -15.179688 33.828125 -15.078125 L 38.546875 -5.3125 C 38.796875 -4.800781 39.03125 -4.300781 39.25 -3.8125 C 39.46875 -3.332031 39.6875 -2.894531 39.90625 -2.5 C 40.125 -1.988281 40.359375 -1.535156 40.609375 -1.140625 C 40.859375 -0.742188 41.128906 -0.363281 41.421875 0 L 26.515625 0 Z M 16.15625 -29.0625 L 16.15625 -20.8125 L 23.640625 -20.8125 C 24.472656 -20.8125 25.039062 -20.929688 25.34375 -21.171875 C 25.65625 -21.410156 25.8125 -21.941406 25.8125 -22.765625 L 25.8125 -27 C 25.8125 -27.90625 25.65625 -28.472656 25.34375 -28.703125 C 25.039062 -28.941406 24.472656 -29.0625 23.640625 -29.0625 Z M 16.15625 -29.0625 "/></g></g></g><g fill="#000000" fill-opacity="1"><g transform="translate(70.103032, 107.086057)"><g><path d="M 36.0625 -9.96875 L 14.53125 -9.96875 L 14.53125 -7.59375 C 14.5625 -6.6875 14.800781 -6.023438 15.25 -5.609375 C 15.707031 -5.191406 16.441406 -4.984375 17.453125 -4.984375 L 29.875 -4.984375 C 30.59375 -4.984375 31.234375 -5 31.796875 -5.03125 C 32.359375 -5.070312 32.910156 -5.164062 33.453125 -5.3125 C 33.816406 -5.382812 34.175781 -5.484375 34.53125 -5.609375 C 34.894531 -5.734375 35.273438 -5.890625 35.671875 -6.078125 L 34.703125 0 L 9.109375 0 C 6.253906 0 4.3125 -0.617188 3.28125 -1.859375 C 2.25 -3.109375 1.734375 -5.054688 1.734375 -7.703125 L 1.734375 -17.78125 C 1.734375 -20.457031 2.25 -22.410156 3.28125 -23.640625 C 4.3125 -24.867188 6.253906 -25.484375 9.109375 -25.484375 L 28.6875 -25.484375 C 31.570312 -25.484375 33.519531 -24.867188 34.53125 -23.640625 C 35.550781 -22.410156 36.0625 -20.457031 36.0625 -17.78125 Z M 14.53125 -14.96875 L 23.484375 -14.96875 L 23.484375 -18.4375 C 23.484375 -19.15625 23.351562 -19.675781 23.09375 -20 C 22.84375 -20.332031 22.359375 -20.5 21.640625 -20.5 L 16.375 -20.5 C 15.6875 -20.5 15.207031 -20.332031 14.9375 -20 C 14.664062 -19.675781 14.53125 -19.15625 14.53125 -18.4375 Z M 14.53125 -14.96875 "/></g></g></g><g fill="#000000" fill-opacity="1"><g transform="translate(108.376244, 107.086057)"><g><path d="M 23.203125 0.875 L 23.203125 -2.546875 L 23.09375 -2.546875 C 23.0625 -2.441406 23.023438 -2.320312 22.984375 -2.1875 C 22.953125 -2.0625 22.898438 -1.945312 22.828125 -1.84375 C 22.648438 -1.375 22.332031 -0.945312 21.875 -0.5625 C 21.425781 -0.1875 20.734375 0 19.796875 0 L 9.765625 0 C 6.835938 0 4.765625 -0.738281 3.546875 -2.21875 C 2.335938 -3.707031 1.734375 -5.609375 1.734375 -7.921875 L 1.734375 -17.5625 C 1.734375 -19.914062 2.335938 -21.820312 3.546875 -23.28125 C 4.765625 -24.75 6.835938 -25.484375 9.765625 -25.484375 L 19.84375 -25.484375 C 21.101562 -25.484375 22.023438 -25.273438 22.609375 -24.859375 C 23.191406 -24.441406 23.609375 -23.742188 23.859375 -22.765625 L 23.96875 -22.765625 L 24.609375 -25.484375 L 37.515625 -25.484375 C 37.441406 -25.304688 37.347656 -25.109375 37.234375 -24.890625 C 37.128906 -24.671875 37.023438 -24.414062 36.921875 -24.125 C 36.703125 -23.625 36.507812 -22.945312 36.34375 -22.09375 C 36.1875 -21.238281 36.109375 -20.109375 36.109375 -18.703125 L 36.109375 0 C 36.109375 3.582031 35.4375 6.078125 34.09375 7.484375 C 32.757812 8.890625 30.578125 9.59375 27.546875 9.59375 L 3.90625 9.65625 L 3.03125 3.25 C 3.425781 3.394531 3.796875 3.539062 4.140625 3.6875 C 4.484375 3.832031 4.835938 3.957031 5.203125 4.0625 C 5.742188 4.25 6.3125 4.382812 6.90625 4.46875 C 7.507812 4.5625 8.191406 4.609375 8.953125 4.609375 L 19.953125 4.65625 C 21.328125 4.625 22.210938 4.363281 22.609375 3.875 C 23.003906 3.382812 23.203125 2.363281 23.203125 0.8125 Z M 23.203125 -7.046875 L 23.203125 -18.4375 C 23.203125 -19.15625 23.078125 -19.675781 22.828125 -20 C 22.578125 -20.332031 22.085938 -20.5 21.359375 -20.5 L 16.375 -20.5 C 15.6875 -20.5 15.207031 -20.332031 14.9375 -20 C 14.664062 -19.675781 14.53125 -19.15625 14.53125 -18.4375 L 14.53125 -7.046875 C 14.53125 -6.328125 14.664062 -5.800781 14.9375 -5.46875 C 15.207031 -5.144531 15.6875 -4.984375 16.375 -4.984375 L 21.359375 -4.984375 C 22.085938 -4.984375 22.578125 -5.144531 22.828125 -5.46875 C 23.078125 -5.800781 23.203125 -6.328125 23.203125 -7.046875 Z M 23.203125 -7.046875 "/></g></g></g><g fill="#000000" fill-opacity="1"><g transform="translate(146.649456, 107.086057)"><g><path d="M 3.140625 -5.859375 L 3.140625 -19.625 C 3.140625 -21.21875 3.019531 -22.382812 2.78125 -23.125 C 2.550781 -23.863281 2.273438 -24.523438 1.953125 -25.109375 C 1.910156 -25.179688 1.875 -25.242188 1.84375 -25.296875 C 1.8125 -25.347656 1.773438 -25.410156 1.734375 -25.484375 L 15.9375 -25.484375 L 15.9375 -5.859375 C 15.9375 -4.265625 16.050781 -3.097656 16.28125 -2.359375 C 16.519531 -1.617188 16.804688 -0.957031 17.140625 -0.375 C 17.171875 -0.300781 17.203125 -0.238281 17.234375 -0.1875 C 17.273438 -0.132812 17.3125 -0.0703125 17.34375 0 L 1.734375 0 C 1.773438 -0.0703125 1.8125 -0.132812 1.84375 -0.1875 C 1.875 -0.238281 1.910156 -0.300781 1.953125 -0.375 C 2.273438 -0.957031 2.550781 -1.617188 2.78125 -2.359375 C 3.019531 -3.097656 3.140625 -4.265625 3.140625 -5.859375 Z M 3.25 -34.8125 L 15.828125 -34.8125 L 15.828125 -28.078125 L 3.25 -28.078125 Z M 3.25 -34.8125 "/></g></g></g><g fill="#000000" fill-opacity="1"><g transform="translate(165.731859, 107.086057)"><g><path d="M 15.9375 -17.890625 L 27 -17.890625 C 30 -17.890625 31.90625 -17.265625 32.71875 -16.015625 C 33.53125 -14.773438 33.972656 -13.375 34.046875 -11.8125 L 34.046875 -6.71875 C 34.046875 -6.613281 34.046875 -6.515625 34.046875 -6.421875 C 34.046875 -6.335938 34.046875 -6.238281 34.046875 -6.125 C 33.941406 -4.601562 33.3125 -3.203125 32.15625 -1.921875 C 31 -0.640625 29.046875 0 26.296875 0 L 2.546875 0 L 1.578125 -6.125 C 1.859375 -5.976562 2.132812 -5.847656 2.40625 -5.734375 C 2.675781 -5.628906 2.957031 -5.523438 3.25 -5.421875 C 3.976562 -5.128906 4.789062 -4.925781 5.6875 -4.8125 C 6.59375 -4.707031 7.878906 -4.65625 9.546875 -4.65625 L 20.328125 -4.65625 C 20.984375 -4.65625 21.425781 -4.753906 21.65625 -4.953125 C 21.894531 -5.160156 22.015625 -5.515625 22.015625 -6.015625 L 22.015625 -6.5625 C 22.015625 -7.0625 21.894531 -7.410156 21.65625 -7.609375 C 21.425781 -7.816406 20.984375 -7.921875 20.328125 -7.921875 L 9.21875 -7.921875 C 6.289062 -7.921875 4.421875 -8.550781 3.609375 -9.8125 C 2.796875 -11.082031 2.351562 -12.492188 2.28125 -14.046875 L 2.28125 -18.984375 C 2.28125 -20.929688 3.019531 -22.5 4.5 -23.6875 C 5.976562 -24.882812 7.929688 -25.484375 10.359375 -25.484375 L 32.484375 -25.484375 L 33.5625 -19.140625 C 33.125 -19.640625 32.316406 -20.023438 31.140625 -20.296875 C 29.972656 -20.578125 28.71875 -20.734375 27.375 -20.765625 C 27.125 -20.796875 26.867188 -20.8125 26.609375 -20.8125 C 26.359375 -20.8125 26.109375 -20.8125 25.859375 -20.8125 L 15.9375 -20.8125 C 15.320312 -20.8125 14.878906 -20.726562 14.609375 -20.5625 C 14.335938 -20.40625 14.203125 -20.179688 14.203125 -19.890625 L 14.203125 -18.8125 C 14.203125 -18.519531 14.335938 -18.289062 14.609375 -18.125 C 14.878906 -17.96875 15.320312 -17.890625 15.9375 -17.890625 Z M 15.9375 -17.890625 "/></g></g></g><g fill="#000000" fill-opacity="1"><g transform="translate(201.999246, 107.086057)"><g><path d="M 5.15625 -25.484375 L 5.15625 -30.796875 L 17.953125 -31.125 L 17.953125 -25.484375 L 28.25 -25.484375 L 28.25 -20.5 L 17.953125 -20.5 L 17.953125 -7.046875 C 17.953125 -6.253906 18.09375 -5.710938 18.375 -5.421875 C 18.664062 -5.128906 19.375 -4.984375 20.5 -4.984375 L 25 -4.984375 C 25.789062 -4.984375 26.492188 -5.035156 27.109375 -5.140625 C 27.722656 -5.253906 28.226562 -5.382812 28.625 -5.53125 C 28.875 -5.601562 29.085938 -5.679688 29.265625 -5.765625 C 29.453125 -5.859375 29.601562 -5.925781 29.71875 -5.96875 L 28.90625 0 L 12.734375 0 C 10.710938 0 8.941406 -0.53125 7.421875 -1.59375 C 5.910156 -2.664062 5.15625 -4.789062 5.15625 -7.96875 L 5.15625 -20.5 L -0.328125 -20.5 L -0.328125 -25.484375 Z M 5.15625 -25.484375 "/></g></g><g transform="translate(232.249182, 107.086057)"><g><path d="M 1.515625 -25.484375 L 14.3125 -25.484375 L 14.75 -21.359375 L 14.859375 -21.359375 C 15.472656 -22.878906 16.222656 -23.945312 17.109375 -24.5625 C 17.992188 -25.175781 19.429688 -25.484375 21.421875 -25.484375 L 27.765625 -25.484375 L 27.765625 -17.140625 C 27.546875 -17.242188 27.34375 -17.347656 27.15625 -17.453125 C 26.976562 -17.566406 26.800781 -17.660156 26.625 -17.734375 C 26.113281 -17.984375 25.523438 -18.148438 24.859375 -18.234375 C 24.191406 -18.328125 23.148438 -18.375 21.734375 -18.375 C 19.210938 -18.375 17.578125 -18.082031 16.828125 -17.5 C 16.085938 -16.925781 15.71875 -15.773438 15.71875 -14.046875 L 15.71875 -5.859375 C 15.71875 -4.265625 15.832031 -3.097656 16.0625 -2.359375 C 16.300781 -1.617188 16.585938 -0.957031 16.921875 -0.375 C 16.953125 -0.300781 16.984375 -0.238281 17.015625 -0.1875 C 17.054688 -0.132812 17.097656 -0.0703125 17.140625 0 L 1.515625 0 C 1.554688 -0.0703125 1.59375 -0.132812 1.625 -0.1875 C 1.664062 -0.238281 1.703125 -0.300781 1.734375 -0.375 C 2.054688 -0.957031 2.332031 -1.617188 2.5625 -2.359375 C 2.800781 -3.097656 2.921875 -4.265625 2.921875 -5.859375 L 2.921875 -19.625 C 2.921875 -21.21875 2.800781 -22.382812 2.5625 -23.125 C 2.332031 -23.863281 2.054688 -24.523438 1.734375 -25.109375 C 1.703125 -25.179688 1.664062 -25.242188 1.625 -25.296875 C 1.59375 -25.347656 1.554688 -25.410156 1.515625 -25.484375 Z M 1.515625 -25.484375 "/></g></g></g><g fill="#000000" fill-opacity="1"><g transform="translate(260.493295, 107.086057)"><g><path d="M 3.84375 -25.484375 L 27.265625 -25.484375 C 30.335938 -25.484375 32.535156 -24.757812 33.859375 -23.3125 C 35.179688 -21.863281 35.84375 -19.390625 35.84375 -15.890625 L 35.84375 -4.765625 C 35.84375 -3.460938 35.957031 -2.46875 36.1875 -1.78125 C 36.425781 -1.101562 36.722656 -0.507812 37.078125 0 L 24.1875 0 L 23.53125 -2.8125 L 23.421875 -2.8125 C 23.097656 -1.695312 22.582031 -0.945312 21.875 -0.5625 C 21.164062 -0.1875 19.945312 0 18.21875 0 L 9.109375 0 C 6.253906 0 4.3125 -0.617188 3.28125 -1.859375 C 2.25 -3.109375 1.734375 -5.054688 1.734375 -7.703125 L 1.734375 -9.546875 C 1.734375 -12.222656 2.25 -14.171875 3.28125 -15.390625 C 4.3125 -16.617188 6.253906 -17.234375 9.109375 -17.234375 L 20.765625 -17.234375 C 21.671875 -17.234375 22.257812 -17.359375 22.53125 -17.609375 C 22.800781 -17.867188 22.9375 -18.289062 22.9375 -18.875 C 22.9375 -19.445312 22.800781 -19.859375 22.53125 -20.109375 C 22.257812 -20.367188 21.671875 -20.5 20.765625 -20.5 L 8.03125 -20.5 C 7.082031 -20.5 6.289062 -20.441406 5.65625 -20.328125 C 5.03125 -20.222656 4.425781 -20.0625 3.84375 -19.84375 C 3.695312 -19.769531 3.550781 -19.695312 3.40625 -19.625 C 3.269531 -19.550781 3.109375 -19.476562 2.921875 -19.40625 Z M 22.9375 -12.25 L 17.234375 -12.25 C 16.265625 -12.21875 15.570312 -12.082031 15.15625 -11.84375 C 14.738281 -11.613281 14.53125 -11.023438 14.53125 -10.078125 L 14.53125 -7.15625 C 14.53125 -6.25 14.738281 -5.671875 15.15625 -5.421875 C 15.570312 -5.171875 16.265625 -5.023438 17.234375 -4.984375 L 20.21875 -4.984375 C 21.445312 -4.984375 22.207031 -5.179688 22.5 -5.578125 C 22.789062 -5.984375 22.9375 -7 22.9375 -8.625 Z M 22.9375 -12.25 "/></g></g></g><g fill="#000000" fill-opacity="1"><g transform="translate(298.766507, 107.086057)"><g><path d="M 5.15625 -25.484375 L 5.15625 -30.796875 L 17.953125 -31.125 L 17.953125 -25.484375 L 28.25 -25.484375 L 28.25 -20.5 L 17.953125 -20.5 L 17.953125 -7.046875 C 17.953125 -6.253906 18.09375 -5.710938 18.375 -5.421875 C 18.664062 -5.128906 19.375 -4.984375 20.5 -4.984375 L 25 -4.984375 C 25.789062 -4.984375 26.492188 -5.035156 27.109375 -5.140625 C 27.722656 -5.253906 28.226562 -5.382812 28.625 -5.53125 C 28.875 -5.601562 29.085938 -5.679688 29.265625 -5.765625 C 29.453125 -5.859375 29.601562 -5.925781 29.71875 -5.96875 L 28.90625 0 L 12.734375 0 C 10.710938 0 8.941406 -0.53125 7.421875 -1.59375 C 5.910156 -2.664062 5.15625 -4.789062 5.15625 -7.96875 L 5.15625 -20.5 L -0.328125 -20.5 L -0.328125 -25.484375 Z M 5.15625 -25.484375 "/></g></g></g><g fill="#000000" fill-opacity="1"><g transform="translate(329.016459, 107.086057)"><g><path d="M 3.140625 -5.859375 L 3.140625 -19.625 C 3.140625 -21.21875 3.019531 -22.382812 2.78125 -23.125 C 2.550781 -23.863281 2.273438 -24.523438 1.953125 -25.109375 C 1.910156 -25.179688 1.875 -25.242188 1.84375 -25.296875 C 1.8125 -25.347656 1.773438 -25.410156 1.734375 -25.484375 L 15.9375 -25.484375 L 15.9375 -5.859375 C 15.9375 -4.265625 16.050781 -3.097656 16.28125 -2.359375 C 16.519531 -1.617188 16.804688 -0.957031 17.140625 -0.375 C 17.171875 -0.300781 17.203125 -0.238281 17.234375 -0.1875 C 17.273438 -0.132812 17.3125 -0.0703125 17.34375 0 L 1.734375 0 C 1.773438 -0.0703125 1.8125 -0.132812 1.84375 -0.1875 C 1.875 -0.238281 1.910156 -0.300781 1.953125 -0.375 C 2.273438 -0.957031 2.550781 -1.617188 2.78125 -2.359375 C 3.019531 -3.097656 3.140625 -4.265625 3.140625 -5.859375 Z M 3.25 -34.8125 L 15.828125 -34.8125 L 15.828125 -28.078125 L 3.25 -28.078125 Z M 3.25 -34.8125 "/></g></g></g><g fill="#000000" fill-opacity="1"><g transform="translate(348.098862, 107.086057)"><g><path d="M 36.546875 -17.78125 L 36.546875 -7.703125 C 36.546875 -5.054688 36.035156 -3.109375 35.015625 -1.859375 C 34.003906 -0.617188 32.054688 0 29.171875 0 L 9.109375 0 C 6.253906 0 4.3125 -0.617188 3.28125 -1.859375 C 2.25 -3.109375 1.734375 -5.054688 1.734375 -7.703125 L 1.734375 -17.78125 C 1.734375 -20.457031 2.25 -22.410156 3.28125 -23.640625 C 4.3125 -24.867188 6.253906 -25.484375 9.109375 -25.484375 L 29.171875 -25.484375 C 32.054688 -25.484375 34.003906 -24.867188 35.015625 -23.640625 C 36.035156 -22.410156 36.546875 -20.457031 36.546875 -17.78125 Z M 14.53125 -18.4375 L 14.53125 -7.046875 C 14.53125 -6.328125 14.664062 -5.800781 14.9375 -5.46875 C 15.207031 -5.144531 15.6875 -4.984375 16.375 -4.984375 L 21.6875 -4.984375 C 22.445312 -4.984375 22.960938 -5.144531 23.234375 -5.46875 C 23.503906 -5.800781 23.640625 -6.328125 23.640625 -7.046875 L 23.640625 -18.4375 C 23.640625 -19.15625 23.503906 -19.675781 23.234375 -20 C 22.960938 -20.332031 22.445312 -20.5 21.6875 -20.5 L 16.375 -20.5 C 15.6875 -20.5 15.207031 -20.332031 14.9375 -20 C 14.664062 -19.675781 14.53125 -19.15625 14.53125 -18.4375 Z M 14.53125 -18.4375 "/></g></g></g><g fill="#000000" fill-opacity="1"><g transform="translate(386.37206, 107.086057)"><g><path d="M 0.921875 -25.484375 L 14.15625 -25.484375 L 14.53125 -22.828125 L 14.640625 -22.828125 C 14.640625 -22.859375 14.644531 -22.882812 14.65625 -22.90625 C 14.675781 -22.925781 14.6875 -22.953125 14.6875 -22.984375 C 14.976562 -23.597656 15.367188 -24.164062 15.859375 -24.6875 C 16.347656 -25.21875 17.046875 -25.484375 17.953125 -25.484375 L 28.40625 -25.484375 C 31.40625 -25.484375 33.570312 -24.648438 34.90625 -22.984375 C 36.25 -21.328125 36.921875 -19.070312 36.921875 -16.21875 L 36.921875 -5.859375 C 36.921875 -4.265625 37.035156 -3.097656 37.265625 -2.359375 C 37.503906 -1.617188 37.785156 -0.957031 38.109375 -0.375 C 38.148438 -0.300781 38.1875 -0.238281 38.21875 -0.1875 C 38.257812 -0.132812 38.296875 -0.0703125 38.328125 0 L 22.609375 0 C 22.640625 -0.0703125 22.671875 -0.132812 22.703125 -0.1875 C 22.742188 -0.238281 22.785156 -0.300781 22.828125 -0.375 C 23.148438 -0.957031 23.425781 -1.617188 23.65625 -2.359375 C 23.894531 -3.097656 24.015625 -4.265625 24.015625 -5.859375 L 24.015625 -18.375 C 24.015625 -19.175781 23.859375 -19.726562 23.546875 -20.03125 C 23.242188 -20.34375 22.695312 -20.5 21.90625 -20.5 L 17.234375 -20.5 C 16.441406 -20.5 15.890625 -20.34375 15.578125 -20.03125 C 15.273438 -19.726562 15.125 -19.175781 15.125 -18.375 L 15.125 -5.859375 C 15.125 -4.265625 15.238281 -3.097656 15.46875 -2.359375 C 15.707031 -1.617188 15.988281 -0.957031 16.3125 -0.375 C 16.351562 -0.300781 16.390625 -0.238281 16.421875 -0.1875 C 16.460938 -0.132812 16.5 -0.0703125 16.53125 0 L 0.921875 0 C 0.953125 -0.0703125 0.984375 -0.132812 1.015625 -0.1875 C 1.054688 -0.238281 1.097656 -0.300781 1.140625 -0.375 C 1.460938 -0.957031 1.738281 -1.617188 1.96875 -2.359375 C 2.207031 -3.097656 2.328125 -4.265625 2.328125 -5.859375 L 2.328125 -19.625 C 2.328125 -21.21875 2.207031 -22.382812 1.96875 -23.125 C 1.738281 -23.863281 1.460938 -24.523438 1.140625 -25.109375 C 1.097656 -25.179688 1.054688 -25.242188 1.015625 -25.296875 C 0.984375 -25.347656 0.953125 -25.410156 0.921875 -25.484375 Z M 0.921875 -25.484375 "/></g></g></g><g fill="#000000" fill-opacity="1"><g transform="translate(425.621087, 107.086057)"><g/></g></g><g fill="#000000" fill-opacity="1"><g transform="translate(446.709302, 107.086057)"><g><path d="M 18.21875 0 L 2.8125 0 C 2.8125 0 2.820312 -0.00390625 2.84375 -0.015625 C 2.863281 -0.0351562 2.875 -0.0664062 2.875 -0.109375 C 3.195312 -0.753906 3.445312 -1.484375 3.625 -2.296875 C 3.8125 -3.117188 3.90625 -4.34375 3.90625 -5.96875 L 3.90625 -28.84375 C 3.90625 -30.46875 3.8125 -31.6875 3.625 -32.5 C 3.445312 -33.3125 3.195312 -34.046875 2.875 -34.703125 C 2.875 -34.734375 2.863281 -34.757812 2.84375 -34.78125 C 2.820312 -34.800781 2.8125 -34.8125 2.8125 -34.8125 L 18.21875 -34.8125 C 18.21875 -34.8125 18.207031 -34.800781 18.1875 -34.78125 C 18.164062 -34.757812 18.15625 -34.734375 18.15625 -34.703125 C 17.832031 -34.046875 17.582031 -33.3125 17.40625 -32.5 C 17.226562 -31.6875 17.140625 -30.46875 17.140625 -28.84375 L 17.140625 -5.96875 C 17.140625 -4.34375 17.226562 -3.117188 17.40625 -2.296875 C 17.582031 -1.484375 17.832031 -0.753906 18.15625 -0.109375 C 18.15625 -0.0664062 18.164062 -0.0351562 18.1875 -0.015625 C 18.207031 -0.00390625 18.21875 0 18.21875 0 Z M 18.21875 0 "/></g></g></g><g fill="#000000" fill-opacity="1"><g transform="translate(467.797516, 107.086057)"><g><path d="M 0.921875 -25.484375 L 14.15625 -25.484375 L 14.53125 -22.828125 L 14.640625 -22.828125 C 14.640625 -22.859375 14.644531 -22.882812 14.65625 -22.90625 C 14.675781 -22.925781 14.6875 -22.953125 14.6875 -22.984375 C 14.976562 -23.597656 15.367188 -24.164062 15.859375 -24.6875 C 16.347656 -25.21875 17.046875 -25.484375 17.953125 -25.484375 L 28.40625 -25.484375 C 31.40625 -25.484375 33.570312 -24.648438 34.90625 -22.984375 C 36.25 -21.328125 36.921875 -19.070312 36.921875 -16.21875 L 36.921875 -5.859375 C 36.921875 -4.265625 37.035156 -3.097656 37.265625 -2.359375 C 37.503906 -1.617188 37.785156 -0.957031 38.109375 -0.375 C 38.148438 -0.300781 38.1875 -0.238281 38.21875 -0.1875 C 38.257812 -0.132812 38.296875 -0.0703125 38.328125 0 L 22.609375 0 C 22.640625 -0.0703125 22.671875 -0.132812 22.703125 -0.1875 C 22.742188 -0.238281 22.785156 -0.300781 22.828125 -0.375 C 23.148438 -0.957031 23.425781 -1.617188 23.65625 -2.359375 C 23.894531 -3.097656 24.015625 -4.265625 24.015625 -5.859375 L 24.015625 -18.375 C 24.015625 -19.175781 23.859375 -19.726562 23.546875 -20.03125 C 23.242188 -20.34375 22.695312 -20.5 21.90625 -20.5 L 17.234375 -20.5 C 16.441406 -20.5 15.890625 -20.34375 15.578125 -20.03125 C 15.273438 -19.726562 15.125 -19.175781 15.125 -18.375 L 15.125 -5.859375 C 15.125 -4.265625 15.238281 -3.097656 15.46875 -2.359375 C 15.707031 -1.617188 15.988281 -0.957031 16.3125 -0.375 C 16.351562 -0.300781 16.390625 -0.238281 16.421875 -0.1875 C 16.460938 -0.132812 16.5 -0.0703125 16.53125 0 L 0.921875 0 C 0.953125 -0.0703125 0.984375 -0.132812 1.015625 -0.1875 C 1.054688 -0.238281 1.097656 -0.300781 1.140625 -0.375 C 1.460938 -0.957031 1.738281 -1.617188 1.96875 -2.359375 C 2.207031 -3.097656 2.328125 -4.265625 2.328125 -5.859375 L 2.328125 -19.625 C 2.328125 -21.21875 2.207031 -22.382812 1.96875 -23.125 C 1.738281 -23.863281 1.460938 -24.523438 1.140625 -25.109375 C 1.097656 -25.179688 1.054688 -25.242188 1.015625 -25.296875 C 0.984375 -25.347656 0.953125 -25.410156 0.921875 -25.484375 Z M 0.921875 -25.484375 "/></g></g></g><g fill="#000000" fill-opacity="1"><g transform="translate(507.046544, 107.086057)"><g><path d="M 17.953125 -20.5 L 17.953125 -5.859375 C 17.953125 -4.265625 18.066406 -3.097656 18.296875 -2.359375 C 18.535156 -1.617188 18.816406 -0.957031 19.140625 -0.375 C 19.171875 -0.300781 19.203125 -0.238281 19.234375 -0.1875 C 19.273438 -0.132812 19.316406 -0.0703125 19.359375 0 L 3.734375 0 C 3.773438 -0.0703125 3.8125 -0.132812 3.84375 -0.1875 C 3.882812 -0.238281 3.921875 -0.300781 3.953125 -0.375 C 4.285156 -0.957031 4.566406 -1.617188 4.796875 -2.359375 C 5.035156 -3.097656 5.15625 -4.265625 5.15625 -5.859375 L 5.15625 -20.5 L -0.21875 -20.5 L -0.21875 -25.484375 L 5.15625 -25.484375 L 5.15625 -27.984375 C 5.15625 -29.785156 5.695312 -31.375 6.78125 -32.75 C 7.863281 -34.125 9.722656 -34.8125 12.359375 -34.8125 L 28.734375 -34.8125 L 29.546875 -28.90625 C 29.148438 -29.082031 28.789062 -29.222656 28.46875 -29.328125 C 28.144531 -29.441406 27.835938 -29.535156 27.546875 -29.609375 C 27.148438 -29.710938 26.742188 -29.773438 26.328125 -29.796875 C 25.910156 -29.816406 25.410156 -29.828125 24.828125 -29.828125 L 20.0625 -29.828125 C 19.269531 -29.828125 18.71875 -29.671875 18.40625 -29.359375 C 18.101562 -29.054688 17.953125 -28.628906 17.953125 -28.078125 L 17.953125 -25.484375 L 28.25 -25.484375 L 28.25 -20.5 Z M 17.953125 -20.5 "/></g></g></g><g fill="#000000" fill-opacity="1"><g transform="translate(534.260644, 107.086057)"><g><path d="M 36.546875 -17.78125 L 36.546875 -7.703125 C 36.546875 -5.054688 36.035156 -3.109375 35.015625 -1.859375 C 34.003906 -0.617188 32.054688 0 29.171875 0 L 9.109375 0 C 6.253906 0 4.3125 -0.617188 3.28125 -1.859375 C 2.25 -3.109375 1.734375 -5.054688 1.734375 -7.703125 L 1.734375 -17.78125 C 1.734375 -20.457031 2.25 -22.410156 3.28125 -23.640625 C 4.3125 -24.867188 6.253906 -25.484375 9.109375 -25.484375 L 29.171875 -25.484375 C 32.054688 -25.484375 34.003906 -24.867188 35.015625 -23.640625 C 36.035156 -22.410156 36.546875 -20.457031 36.546875 -17.78125 Z M 14.53125 -18.4375 L 14.53125 -7.046875 C 14.53125 -6.328125 14.664062 -5.800781 14.9375 -5.46875 C 15.207031 -5.144531 15.6875 -4.984375 16.375 -4.984375 L 21.6875 -4.984375 C 22.445312 -4.984375 22.960938 -5.144531 23.234375 -5.46875 C 23.503906 -5.800781 23.640625 -6.328125 23.640625 -7.046875 L 23.640625 -18.4375 C 23.640625 -19.15625 23.503906 -19.675781 23.234375 -20 C 22.960938 -20.332031 22.445312 -20.5 21.6875 -20.5 L 16.375 -20.5 C 15.6875 -20.5 15.207031 -20.332031 14.9375 -20 C 14.664062 -19.675781 14.53125 -19.15625 14.53125 -18.4375 Z M 14.53125 -18.4375 "/></g></g></g><g fill="#000000" fill-opacity="1"><g transform="translate(56.369317, 273.228836)"><g><path d="M 19.6875 -14.671875 L 15.734375 -14.671875 L 15.734375 -5.8125 C 15.734375 -4.226562 15.820312 -3.039062 16 -2.25 C 16.175781 -1.457031 16.421875 -0.742188 16.734375 -0.109375 C 16.734375 -0.0664062 16.742188 -0.0351562 16.765625 -0.015625 C 16.785156 -0.00390625 16.796875 0 16.796875 0 L 1.796875 0 C 1.796875 0 1.800781 -0.00390625 1.8125 -0.015625 C 1.832031 -0.0351562 1.84375 -0.0664062 1.84375 -0.109375 C 2.164062 -0.742188 2.410156 -1.457031 2.578125 -2.25 C 2.753906 -3.039062 2.84375 -4.226562 2.84375 -5.8125 L 2.84375 -28.09375 C 2.84375 -29.675781 2.738281 -30.863281 2.53125 -31.65625 C 2.320312 -32.445312 1.988281 -33.160156 1.53125 -33.796875 C 1.53125 -33.828125 1.519531 -33.847656 1.5 -33.859375 C 1.488281 -33.878906 1.484375 -33.890625 1.484375 -33.890625 L 29.359375 -33.890625 C 32.316406 -33.890625 34.515625 -33.351562 35.953125 -32.28125 C 37.398438 -31.207031 38.125 -29.226562 38.125 -26.34375 L 38.125 -20.109375 C 38.125 -17.648438 37.601562 -16.15625 36.5625 -15.625 C 35.519531 -15.09375 34.3125 -14.773438 32.9375 -14.671875 L 37.53125 -5.171875 C 37.78125 -4.679688 38.007812 -4.195312 38.21875 -3.71875 C 38.4375 -3.25 38.648438 -2.816406 38.859375 -2.421875 C 39.066406 -1.929688 39.296875 -1.492188 39.546875 -1.109375 C 39.796875 -0.722656 40.0625 -0.351562 40.34375 0 L 25.8125 0 Z M 15.734375 -28.296875 L 15.734375 -20.28125 L 23.015625 -20.28125 C 23.828125 -20.28125 24.378906 -20.390625 24.671875 -20.609375 C 24.972656 -20.835938 25.125 -21.359375 25.125 -22.171875 L 25.125 -26.296875 C 25.125 -27.171875 24.972656 -27.722656 24.671875 -27.953125 C 24.378906 -28.179688 23.828125 -28.296875 23.015625 -28.296875 Z M 15.734375 -28.296875 "/></g></g></g><g fill="#000000" fill-opacity="1"><g transform="translate(97.551932, 273.228836)"><g><path d="M 35.109375 -9.71875 L 14.15625 -9.71875 L 14.15625 -7.390625 C 14.1875 -6.515625 14.421875 -5.875 14.859375 -5.46875 C 15.296875 -5.0625 16.007812 -4.859375 17 -4.859375 L 29.09375 -4.859375 C 29.789062 -4.859375 30.410156 -4.875 30.953125 -4.90625 C 31.503906 -4.945312 32.046875 -5.035156 32.578125 -5.171875 C 32.929688 -5.242188 33.28125 -5.34375 33.625 -5.46875 C 33.976562 -5.59375 34.347656 -5.738281 34.734375 -5.90625 L 33.796875 0 L 8.875 0 C 6.09375 0 4.195312 -0.601562 3.1875 -1.8125 C 2.1875 -3.03125 1.6875 -4.925781 1.6875 -7.5 L 1.6875 -17.3125 C 1.6875 -19.914062 2.1875 -21.816406 3.1875 -23.015625 C 4.195312 -24.210938 6.09375 -24.8125 8.875 -24.8125 L 27.921875 -24.8125 C 30.742188 -24.8125 32.644531 -24.210938 33.625 -23.015625 C 34.613281 -21.816406 35.109375 -19.914062 35.109375 -17.3125 Z M 14.15625 -14.578125 L 22.859375 -14.578125 L 22.859375 -17.953125 C 22.859375 -18.648438 22.734375 -19.15625 22.484375 -19.46875 C 22.242188 -19.789062 21.769531 -19.953125 21.0625 -19.953125 L 15.9375 -19.953125 C 15.269531 -19.953125 14.804688 -19.789062 14.546875 -19.46875 C 14.285156 -19.15625 14.15625 -18.648438 14.15625 -17.953125 Z M 14.15625 -14.578125 "/></g></g></g><g fill="#000000" fill-opacity="1"><g transform="translate(134.827482, 273.228836)"><g><path d="M 22.59375 0.84375 L 22.59375 -2.484375 L 22.484375 -2.484375 C 22.453125 -2.378906 22.414062 -2.265625 22.375 -2.140625 C 22.34375 -2.015625 22.296875 -1.898438 22.234375 -1.796875 C 22.054688 -1.335938 21.742188 -0.921875 21.296875 -0.546875 C 20.859375 -0.179688 20.179688 0 19.265625 0 L 9.5 0 C 6.65625 0 4.640625 -0.71875 3.453125 -2.15625 C 2.273438 -3.601562 1.6875 -5.453125 1.6875 -7.703125 L 1.6875 -17.109375 C 1.6875 -19.390625 2.273438 -21.242188 3.453125 -22.671875 C 4.640625 -24.097656 6.65625 -24.8125 9.5 -24.8125 L 19.328125 -24.8125 C 20.554688 -24.8125 21.453125 -24.609375 22.015625 -24.203125 C 22.578125 -23.796875 22.984375 -23.117188 23.234375 -22.171875 L 23.34375 -22.171875 L 23.96875 -24.8125 L 36.53125 -24.8125 C 36.46875 -24.632812 36.378906 -24.441406 36.265625 -24.234375 C 36.160156 -24.023438 36.054688 -23.78125 35.953125 -23.5 C 35.742188 -23 35.554688 -22.335938 35.390625 -21.515625 C 35.234375 -20.691406 35.15625 -19.59375 35.15625 -18.21875 L 35.15625 0 C 35.15625 3.488281 34.503906 5.914062 33.203125 7.28125 C 31.898438 8.65625 29.773438 9.34375 26.828125 9.34375 L 3.796875 9.390625 L 2.953125 3.171875 C 3.335938 3.304688 3.695312 3.441406 4.03125 3.578125 C 4.375 3.722656 4.71875 3.847656 5.0625 3.953125 C 5.59375 4.128906 6.148438 4.257812 6.734375 4.34375 C 7.316406 4.4375 7.976562 4.484375 8.71875 4.484375 L 19.421875 4.546875 C 20.765625 4.503906 21.628906 4.242188 22.015625 3.765625 C 22.398438 3.296875 22.59375 2.304688 22.59375 0.796875 Z M 22.59375 -6.859375 L 22.59375 -17.953125 C 22.59375 -18.648438 22.46875 -19.15625 22.21875 -19.46875 C 21.976562 -19.789062 21.503906 -19.953125 20.796875 -19.953125 L 15.9375 -19.953125 C 15.269531 -19.953125 14.804688 -19.789062 14.546875 -19.46875 C 14.285156 -19.15625 14.15625 -18.648438 14.15625 -17.953125 L 14.15625 -6.859375 C 14.15625 -6.160156 14.285156 -5.648438 14.546875 -5.328125 C 14.804688 -5.015625 15.269531 -4.859375 15.9375 -4.859375 L 20.796875 -4.859375 C 21.503906 -4.859375 21.976562 -5.015625 22.21875 -5.328125 C 22.46875 -5.648438 22.59375 -6.160156 22.59375 -6.859375 Z M 22.59375 -6.859375 "/></g></g></g><g fill="#000000" fill-opacity="1"><g transform="translate(172.103032, 273.228836)"><g><path d="M 3.0625 -5.703125 L 3.0625 -19.109375 C 3.0625 -20.660156 2.945312 -21.796875 2.71875 -22.515625 C 2.488281 -23.234375 2.21875 -23.875 1.90625 -24.4375 C 1.863281 -24.507812 1.828125 -24.570312 1.796875 -24.625 C 1.765625 -24.675781 1.726562 -24.738281 1.6875 -24.8125 L 15.515625 -24.8125 L 15.515625 -5.703125 C 15.515625 -4.148438 15.628906 -3.015625 15.859375 -2.296875 C 16.085938 -1.578125 16.363281 -0.9375 16.6875 -0.375 C 16.71875 -0.300781 16.75 -0.238281 16.78125 -0.1875 C 16.820312 -0.132812 16.859375 -0.0703125 16.890625 0 L 1.6875 0 C 1.726562 -0.0703125 1.765625 -0.132812 1.796875 -0.1875 C 1.828125 -0.238281 1.863281 -0.300781 1.90625 -0.375 C 2.21875 -0.9375 2.488281 -1.578125 2.71875 -2.296875 C 2.945312 -3.015625 3.0625 -4.148438 3.0625 -5.703125 Z M 3.171875 -33.890625 L 15.421875 -33.890625 L 15.421875 -27.34375 L 3.171875 -27.34375 Z M 3.171875 -33.890625 "/></g></g></g><g fill="#000000" fill-opacity="1"><g transform="translate(190.688008, 273.228836)"><g><path d="M 15.515625 -17.421875 L 26.296875 -17.421875 C 29.210938 -17.421875 31.066406 -16.8125 31.859375 -15.59375 C 32.648438 -14.382812 33.082031 -13.023438 33.15625 -11.515625 L 33.15625 -6.546875 C 33.15625 -6.441406 33.15625 -6.34375 33.15625 -6.25 C 33.15625 -6.164062 33.15625 -6.070312 33.15625 -5.96875 C 33.050781 -4.488281 32.4375 -3.125 31.3125 -1.875 C 30.1875 -0.625 28.285156 0 25.609375 0 L 2.484375 0 L 1.53125 -5.96875 C 1.8125 -5.820312 2.082031 -5.695312 2.34375 -5.59375 C 2.613281 -5.488281 2.890625 -5.382812 3.171875 -5.28125 C 3.867188 -5 4.65625 -4.804688 5.53125 -4.703125 C 6.414062 -4.597656 7.671875 -4.546875 9.296875 -4.546875 L 19.796875 -4.546875 C 20.429688 -4.546875 20.863281 -4.640625 21.09375 -4.828125 C 21.320312 -5.023438 21.4375 -5.367188 21.4375 -5.859375 L 21.4375 -6.390625 C 21.4375 -6.878906 21.320312 -7.21875 21.09375 -7.40625 C 20.863281 -7.601562 20.429688 -7.703125 19.796875 -7.703125 L 8.96875 -7.703125 C 6.125 -7.703125 4.304688 -8.316406 3.515625 -9.546875 C 2.722656 -10.785156 2.289062 -12.160156 2.21875 -13.671875 L 2.21875 -18.484375 C 2.21875 -20.378906 2.9375 -21.90625 4.375 -23.0625 C 5.820312 -24.226562 7.722656 -24.8125 10.078125 -24.8125 L 31.625 -24.8125 L 32.6875 -18.640625 C 32.257812 -19.128906 31.472656 -19.503906 30.328125 -19.765625 C 29.179688 -20.035156 27.957031 -20.1875 26.65625 -20.21875 C 26.414062 -20.257812 26.171875 -20.28125 25.921875 -20.28125 C 25.671875 -20.28125 25.425781 -20.28125 25.1875 -20.28125 L 15.515625 -20.28125 C 14.921875 -20.28125 14.488281 -20.195312 14.21875 -20.03125 C 13.957031 -19.875 13.828125 -19.65625 13.828125 -19.375 L 13.828125 -18.328125 C 13.828125 -18.035156 13.957031 -17.8125 14.21875 -17.65625 C 14.488281 -17.5 14.921875 -17.421875 15.515625 -17.421875 Z M 15.515625 -17.421875 "/></g></g></g><g fill="#000000" fill-opacity="1"><g transform="translate(226.01002, 273.228836)"><g><path d="M 5.015625 -24.8125 L 5.015625 -29.984375 L 17.46875 -30.3125 L 17.46875 -24.8125 L 27.5 -24.8125 L 27.5 -19.953125 L 17.46875 -19.953125 L 17.46875 -6.859375 C 17.46875 -6.085938 17.609375 -5.5625 17.890625 -5.28125 C 18.179688 -5 18.867188 -4.859375 19.953125 -4.859375 L 24.34375 -4.859375 C 25.113281 -4.859375 25.796875 -4.910156 26.390625 -5.015625 C 26.992188 -5.117188 27.488281 -5.242188 27.875 -5.390625 C 28.125 -5.453125 28.335938 -5.523438 28.515625 -5.609375 C 28.691406 -5.703125 28.832031 -5.769531 28.9375 -5.8125 L 28.140625 0 L 12.40625 0 C 10.4375 0 8.710938 -0.515625 7.234375 -1.546875 C 5.753906 -2.585938 5.015625 -4.660156 5.015625 -7.765625 L 5.015625 -19.953125 L -0.3125 -19.953125 L -0.3125 -24.8125 Z M 5.015625 -24.8125 "/></g></g></g><g fill="#000000" fill-opacity="1"><g transform="translate(255.471419, 273.228836)"><g><path d="M 1.484375 -24.8125 L 13.9375 -24.8125 L 14.359375 -20.796875 L 14.46875 -20.796875 C 15.0625 -22.273438 15.789062 -23.3125 16.65625 -23.90625 C 17.519531 -24.507812 18.921875 -24.8125 20.859375 -24.8125 L 27.03125 -24.8125 L 27.03125 -16.6875 C 26.820312 -16.789062 26.628906 -16.894531 26.453125 -17 C 26.273438 -17.101562 26.097656 -17.191406 25.921875 -17.265625 C 25.429688 -17.515625 24.859375 -17.679688 24.203125 -17.765625 C 23.554688 -17.847656 22.546875 -17.890625 21.171875 -17.890625 C 18.703125 -17.890625 17.109375 -17.609375 16.390625 -17.046875 C 15.671875 -16.484375 15.3125 -15.359375 15.3125 -13.671875 L 15.3125 -5.703125 C 15.3125 -4.148438 15.425781 -3.015625 15.65625 -2.296875 C 15.882812 -1.578125 16.15625 -0.9375 16.46875 -0.375 C 16.507812 -0.300781 16.546875 -0.238281 16.578125 -0.1875 C 16.609375 -0.132812 16.644531 -0.0703125 16.6875 0 L 1.484375 0 C 1.515625 -0.0703125 1.546875 -0.132812 1.578125 -0.1875 C 1.617188 -0.238281 1.65625 -0.300781 1.6875 -0.375 C 2.007812 -0.9375 2.28125 -1.578125 2.5 -2.296875 C 2.726562 -3.015625 2.84375 -4.148438 2.84375 -5.703125 L 2.84375 -19.109375 C 2.84375 -20.660156 2.726562 -21.796875 2.5 -22.515625 C 2.28125 -23.234375 2.007812 -23.875 1.6875 -24.4375 C 1.65625 -24.507812 1.617188 -24.570312 1.578125 -24.625 C 1.546875 -24.675781 1.515625 -24.738281 1.484375 -24.8125 Z M 1.484375 -24.8125 "/></g></g></g><g fill="#000000" fill-opacity="1"><g transform="translate(282.979291, 273.228836)"><g><path d="M 3.75 -24.8125 L 26.5625 -24.8125 C 29.550781 -24.8125 31.6875 -24.109375 32.96875 -22.703125 C 34.257812 -21.296875 34.90625 -18.882812 34.90625 -15.46875 L 34.90625 -4.640625 C 34.90625 -3.378906 35.015625 -2.410156 35.234375 -1.734375 C 35.460938 -1.066406 35.753906 -0.488281 36.109375 0 L 23.546875 0 L 22.90625 -2.75 L 22.8125 -2.75 C 22.488281 -1.65625 21.984375 -0.921875 21.296875 -0.546875 C 20.617188 -0.179688 19.429688 0 17.734375 0 L 8.875 0 C 6.09375 0 4.195312 -0.601562 3.1875 -1.8125 C 2.1875 -3.03125 1.6875 -4.925781 1.6875 -7.5 L 1.6875 -9.296875 C 1.6875 -11.898438 2.1875 -13.800781 3.1875 -15 C 4.195312 -16.195312 6.09375 -16.796875 8.875 -16.796875 L 20.21875 -16.796875 C 21.101562 -16.796875 21.675781 -16.914062 21.9375 -17.15625 C 22.195312 -17.40625 22.328125 -17.8125 22.328125 -18.375 C 22.328125 -18.9375 22.195312 -19.335938 21.9375 -19.578125 C 21.675781 -19.828125 21.101562 -19.953125 20.21875 -19.953125 L 7.8125 -19.953125 C 6.894531 -19.953125 6.128906 -19.898438 5.515625 -19.796875 C 4.898438 -19.691406 4.3125 -19.535156 3.75 -19.328125 C 3.601562 -19.253906 3.457031 -19.179688 3.3125 -19.109375 C 3.175781 -19.035156 3.019531 -18.96875 2.84375 -18.90625 Z M 22.328125 -11.9375 L 16.796875 -11.9375 C 15.835938 -11.894531 15.15625 -11.757812 14.75 -11.53125 C 14.351562 -11.300781 14.15625 -10.726562 14.15625 -9.8125 L 14.15625 -6.96875 C 14.15625 -6.09375 14.351562 -5.53125 14.75 -5.28125 C 15.15625 -5.03125 15.835938 -4.890625 16.796875 -4.859375 L 19.6875 -4.859375 C 20.882812 -4.859375 21.625 -5.050781 21.90625 -5.4375 C 22.1875 -5.820312 22.328125 -6.804688 22.328125 -8.390625 Z M 22.328125 -11.9375 "/></g></g></g><g fill="#000000" fill-opacity="1"><g transform="translate(320.254841, 273.228836)"><g><path d="M 5.015625 -24.8125 L 5.015625 -29.984375 L 17.46875 -30.3125 L 17.46875 -24.8125 L 27.5 -24.8125 L 27.5 -19.953125 L 17.46875 -19.953125 L 17.46875 -6.859375 C 17.46875 -6.085938 17.609375 -5.5625 17.890625 -5.28125 C 18.179688 -5 18.867188 -4.859375 19.953125 -4.859375 L 24.34375 -4.859375 C 25.113281 -4.859375 25.796875 -4.910156 26.390625 -5.015625 C 26.992188 -5.117188 27.488281 -5.242188 27.875 -5.390625 C 28.125 -5.453125 28.335938 -5.523438 28.515625 -5.609375 C 28.691406 -5.703125 28.832031 -5.769531 28.9375 -5.8125 L 28.140625 0 L 12.40625 0 C 10.4375 0 8.710938 -0.515625 7.234375 -1.546875 C 5.753906 -2.585938 5.015625 -4.660156 5.015625 -7.765625 L 5.015625 -19.953125 L -0.3125 -19.953125 L -0.3125 -24.8125 Z M 5.015625 -24.8125 "/></g></g></g><g fill="#000000" fill-opacity="1"><g transform="translate(349.716261, 273.228836)"><g><path d="M 3.0625 -5.703125 L 3.0625 -19.109375 C 3.0625 -20.660156 2.945312 -21.796875 2.71875 -22.515625 C 2.488281 -23.234375 2.21875 -23.875 1.90625 -24.4375 C 1.863281 -24.507812 1.828125 -24.570312 1.796875 -24.625 C 1.765625 -24.675781 1.726562 -24.738281 1.6875 -24.8125 L 15.515625 -24.8125 L 15.515625 -5.703125 C 15.515625 -4.148438 15.628906 -3.015625 15.859375 -2.296875 C 16.085938 -1.578125 16.363281 -0.9375 16.6875 -0.375 C 16.71875 -0.300781 16.75 -0.238281 16.78125 -0.1875 C 16.820312 -0.132812 16.859375 -0.0703125 16.890625 0 L 1.6875 0 C 1.726562 -0.0703125 1.765625 -0.132812 1.796875 -0.1875 C 1.828125 -0.238281 1.863281 -0.300781 1.90625 -0.375 C 2.21875 -0.9375 2.488281 -1.578125 2.71875 -2.296875 C 2.945312 -3.015625 3.0625 -4.148438 3.0625 -5.703125 Z M 3.171875 -33.890625 L 15.421875 -33.890625 L 15.421875 -27.34375 L 3.171875 -27.34375 Z M 3.171875 -33.890625 "/></g></g></g><g fill="#000000" fill-opacity="1"><g transform="translate(368.301237, 273.228836)"><g><path d="M 35.578125 -17.3125 L 35.578125 -7.5 C 35.578125 -4.925781 35.082031 -3.03125 34.09375 -1.8125 C 33.113281 -0.601562 31.21875 0 28.40625 0 L 8.875 0 C 6.09375 0 4.195312 -0.601562 3.1875 -1.8125 C 2.1875 -3.03125 1.6875 -4.925781 1.6875 -7.5 L 1.6875 -17.3125 C 1.6875 -19.914062 2.1875 -21.816406 3.1875 -23.015625 C 4.195312 -24.210938 6.09375 -24.8125 8.875 -24.8125 L 28.40625 -24.8125 C 31.21875 -24.8125 33.113281 -24.210938 34.09375 -23.015625 C 35.082031 -21.816406 35.578125 -19.914062 35.578125 -17.3125 Z M 14.15625 -17.953125 L 14.15625 -6.859375 C 14.15625 -6.160156 14.285156 -5.648438 14.546875 -5.328125 C 14.804688 -5.015625 15.269531 -4.859375 15.9375 -4.859375 L 21.125 -4.859375 C 21.863281 -4.859375 22.363281 -5.015625 22.625 -5.328125 C 22.882812 -5.648438 23.015625 -6.160156 23.015625 -6.859375 L 23.015625 -17.953125 C 23.015625 -18.648438 22.882812 -19.15625 22.625 -19.46875 C 22.363281 -19.789062 21.863281 -19.953125 21.125 -19.953125 L 15.9375 -19.953125 C 15.269531 -19.953125 14.804688 -19.789062 14.546875 -19.46875 C 14.285156 -19.15625 14.15625 -18.648438 14.15625 -17.953125 Z M 14.15625 -17.953125 "/></g></g></g><g fill="#000000" fill-opacity="1"><g transform="translate(405.576787, 273.228836)"><g><path d="M 0.890625 -24.8125 L 13.78125 -24.8125 L 14.15625 -22.234375 L 14.25 -22.234375 C 14.25 -22.265625 14.257812 -22.285156 14.28125 -22.296875 C 14.300781 -22.316406 14.3125 -22.347656 14.3125 -22.390625 C 14.59375 -22.984375 14.96875 -23.535156 15.4375 -24.046875 C 15.914062 -24.554688 16.59375 -24.8125 17.46875 -24.8125 L 27.671875 -24.8125 C 30.585938 -24.8125 32.695312 -24 34 -22.375 C 35.300781 -20.757812 35.953125 -18.5625 35.953125 -15.78125 L 35.953125 -5.703125 C 35.953125 -4.148438 36.066406 -3.015625 36.296875 -2.296875 C 36.523438 -1.578125 36.796875 -0.9375 37.109375 -0.375 C 37.148438 -0.300781 37.1875 -0.238281 37.21875 -0.1875 C 37.257812 -0.132812 37.296875 -0.0703125 37.328125 0 L 22.015625 0 C 22.046875 -0.0703125 22.078125 -0.132812 22.109375 -0.1875 C 22.148438 -0.238281 22.191406 -0.300781 22.234375 -0.375 C 22.546875 -0.9375 22.816406 -1.578125 23.046875 -2.296875 C 23.273438 -3.015625 23.390625 -4.148438 23.390625 -5.703125 L 23.390625 -17.890625 C 23.390625 -18.671875 23.238281 -19.207031 22.9375 -19.5 C 22.632812 -19.800781 22.097656 -19.953125 21.328125 -19.953125 L 16.796875 -19.953125 C 16.015625 -19.953125 15.472656 -19.800781 15.171875 -19.5 C 14.878906 -19.207031 14.734375 -18.671875 14.734375 -17.890625 L 14.734375 -5.703125 C 14.734375 -4.148438 14.847656 -3.015625 15.078125 -2.296875 C 15.304688 -1.578125 15.578125 -0.9375 15.890625 -0.375 C 15.921875 -0.300781 15.953125 -0.238281 15.984375 -0.1875 C 16.023438 -0.132812 16.066406 -0.0703125 16.109375 0 L 0.890625 0 C 0.929688 -0.0703125 0.96875 -0.132812 1 -0.1875 C 1.039062 -0.238281 1.078125 -0.300781 1.109375 -0.375 C 1.421875 -0.9375 1.691406 -1.578125 1.921875 -2.296875 C 2.148438 -3.015625 2.265625 -4.148438 2.265625 -5.703125 L 2.265625 -19.109375 C 2.265625 -20.660156 2.148438 -21.796875 1.921875 -22.515625 C 1.691406 -23.234375 1.421875 -23.875 1.109375 -24.4375 C 1.078125 -24.507812 1.039062 -24.570312 1 -24.625 C 0.96875 -24.675781 0.929688 -24.738281 0.890625 -24.8125 Z M 0.890625 -24.8125 "/></g></g></g><g fill="#000000" fill-opacity="1"><g transform="translate(443.802716, 273.228836)"><g/></g></g><g fill="#000000" fill-opacity="1"><g transform="translate(464.341241, 273.228836)"><g><path d="M 17.46875 -19.953125 L 17.46875 -5.703125 C 17.46875 -4.148438 17.582031 -3.015625 17.8125 -2.296875 C 18.039062 -1.578125 18.316406 -0.9375 18.640625 -0.375 C 18.671875 -0.300781 18.703125 -0.238281 18.734375 -0.1875 C 18.773438 -0.132812 18.8125 -0.0703125 18.84375 0 L 3.640625 0 C 3.679688 -0.0703125 3.71875 -0.132812 3.75 -0.1875 C 3.78125 -0.238281 3.816406 -0.300781 3.859375 -0.375 C 4.171875 -0.9375 4.441406 -1.578125 4.671875 -2.296875 C 4.898438 -3.015625 5.015625 -4.148438 5.015625 -5.703125 L 5.015625 -19.953125 L -0.21875 -19.953125 L -0.21875 -24.8125 L 5.015625 -24.8125 L 5.015625 -27.25 C 5.015625 -29.007812 5.539062 -30.554688 6.59375 -31.890625 C 7.65625 -33.222656 9.46875 -33.890625 12.03125 -33.890625 L 27.984375 -33.890625 L 28.78125 -28.140625 C 28.382812 -28.316406 28.03125 -28.457031 27.71875 -28.5625 C 27.40625 -28.664062 27.109375 -28.753906 26.828125 -28.828125 C 26.429688 -28.929688 26.03125 -28.988281 25.625 -29 C 25.226562 -29.019531 24.75 -29.03125 24.1875 -29.03125 L 19.53125 -29.03125 C 18.757812 -29.03125 18.222656 -28.878906 17.921875 -28.578125 C 17.617188 -28.285156 17.46875 -27.875 17.46875 -27.34375 L 17.46875 -24.8125 L 27.5 -24.8125 L 27.5 -19.953125 Z M 17.46875 -19.953125 "/></g></g></g><g fill="#000000" fill-opacity="1"><g transform="translate(490.845965, 273.228836)"><g><path d="M 35.578125 -17.3125 L 35.578125 -7.5 C 35.578125 -4.925781 35.082031 -3.03125 34.09375 -1.8125 C 33.113281 -0.601562 31.21875 0 28.40625 0 L 8.875 0 C 6.09375 0 4.195312 -0.601562 3.1875 -1.8125 C 2.1875 -3.03125 1.6875 -4.925781 1.6875 -7.5 L 1.6875 -17.3125 C 1.6875 -19.914062 2.1875 -21.816406 3.1875 -23.015625 C 4.195312 -24.210938 6.09375 -24.8125 8.875 -24.8125 L 28.40625 -24.8125 C 31.21875 -24.8125 33.113281 -24.210938 34.09375 -23.015625 C 35.082031 -21.816406 35.578125 -19.914062 35.578125 -17.3125 Z M 14.15625 -17.953125 L 14.15625 -6.859375 C 14.15625 -6.160156 14.285156 -5.648438 14.546875 -5.328125 C 14.804688 -5.015625 15.269531 -4.859375 15.9375 -4.859375 L 21.125 -4.859375 C 21.863281 -4.859375 22.363281 -5.015625 22.625 -5.328125 C 22.882812 -5.648438 23.015625 -6.160156 23.015625 -6.859375 L 23.015625 -17.953125 C 23.015625 -18.648438 22.882812 -19.15625 22.625 -19.46875 C 22.363281 -19.789062 21.863281 -19.953125 21.125 -19.953125 L 15.9375 -19.953125 C 15.269531 -19.953125 14.804688 -19.789062 14.546875 -19.46875 C 14.285156 -19.15625 14.15625 -18.648438 14.15625 -17.953125 Z M 14.15625 -17.953125 "/></g></g></g><g fill="#000000" fill-opacity="1"><g transform="translate(528.121494, 273.228836)"><g><path d="M 1.484375 -24.8125 L 13.9375 -24.8125 L 14.359375 -20.796875 L 14.46875 -20.796875 C 15.0625 -22.273438 15.789062 -23.3125 16.65625 -23.90625 C 17.519531 -24.507812 18.921875 -24.8125 20.859375 -24.8125 L 27.03125 -24.8125 L 27.03125 -16.6875 C 26.820312 -16.789062 26.628906 -16.894531 26.453125 -17 C 26.273438 -17.101562 26.097656 -17.191406 25.921875 -17.265625 C 25.429688 -17.515625 24.859375 -17.679688 24.203125 -17.765625 C 23.554688 -17.847656 22.546875 -17.890625 21.171875 -17.890625 C 18.703125 -17.890625 17.109375 -17.609375 16.390625 -17.046875 C 15.671875 -16.484375 15.3125 -15.359375 15.3125 -13.671875 L 15.3125 -5.703125 C 15.3125 -4.148438 15.425781 -3.015625 15.65625 -2.296875 C 15.882812 -1.578125 16.15625 -0.9375 16.46875 -0.375 C 16.507812 -0.300781 16.546875 -0.238281 16.578125 -0.1875 C 16.609375 -0.132812 16.644531 -0.0703125 16.6875 0 L 1.484375 0 C 1.515625 -0.0703125 1.546875 -0.132812 1.578125 -0.1875 C 1.617188 -0.238281 1.65625 -0.300781 1.6875 -0.375 C 2.007812 -0.9375 2.28125 -1.578125 2.5 -2.296875 C 2.726562 -3.015625 2.84375 -4.148438 2.84375 -5.703125 L 2.84375 -19.109375 C 2.84375 -20.660156 2.726562 -21.796875 2.5 -22.515625 C 2.28125 -23.234375 2.007812 -23.875 1.6875 -24.4375 C 1.65625 -24.507812 1.617188 -24.570312 1.578125 -24.625 C 1.546875 -24.675781 1.515625 -24.738281 1.484375 -24.8125 Z M 1.484375 -24.8125 "/></g></g></g><g fill="#000000" fill-opacity="1"><g transform="translate(97.704544, 346.865199)"><g><path d="M 26.921875 0 L 12.40625 0 L 11.03125 -3.703125 L 1.3125 -30.734375 L 1.265625 -30.78125 C 1.015625 -31.488281 0.722656 -32.085938 0.390625 -32.578125 C 0.0546875 -33.066406 -0.316406 -33.503906 -0.734375 -33.890625 L 15.265625 -33.890625 C 15.222656 -33.679688 15.179688 -33.488281 15.140625 -33.3125 C 15.109375 -33.132812 15.078125 -32.957031 15.046875 -32.78125 C 15.015625 -32.644531 15 -32.523438 15 -32.421875 C 15 -32.316406 15 -32.191406 15 -32.046875 C 15 -31.796875 15.003906 -31.539062 15.015625 -31.28125 C 15.035156 -31.019531 15.082031 -30.765625 15.15625 -30.515625 C 15.226562 -30.097656 15.34375 -29.648438 15.5 -29.171875 C 15.65625 -28.691406 15.835938 -28.191406 16.046875 -27.671875 L 23.4375 -7.1875 L 31.46875 -27.671875 C 31.675781 -28.191406 31.859375 -28.691406 32.015625 -29.171875 C 32.179688 -29.648438 32.296875 -30.097656 32.359375 -30.515625 C 32.429688 -30.765625 32.472656 -31.019531 32.484375 -31.28125 C 32.503906 -31.539062 32.515625 -31.796875 32.515625 -32.046875 C 32.515625 -32.191406 32.515625 -32.316406 32.515625 -32.421875 C 32.515625 -32.523438 32.5 -32.644531 32.46875 -32.78125 C 32.4375 -32.957031 32.398438 -33.132812 32.359375 -33.3125 C 32.328125 -33.488281 32.296875 -33.679688 32.265625 -33.890625 L 40.96875 -33.890625 C 40.4375 -33.328125 39.898438 -32.578125 39.359375 -31.640625 C 38.816406 -30.710938 38.226562 -29.421875 37.59375 -27.765625 L 37.28125 -27.078125 L 26.984375 -0.046875 Z M 26.921875 0 "/></g></g></g><g fill="#000000" fill-opacity="1"><g transform="translate(137.88399, 346.865199)"><g><path d="M 35.109375 -9.71875 L 14.15625 -9.71875 L 14.15625 -7.390625 C 14.1875 -6.515625 14.421875 -5.875 14.859375 -5.46875 C 15.296875 -5.0625 16.007812 -4.859375 17 -4.859375 L 29.09375 -4.859375 C 29.789062 -4.859375 30.410156 -4.875 30.953125 -4.90625 C 31.503906 -4.945312 32.046875 -5.035156 32.578125 -5.171875 C 32.929688 -5.242188 33.28125 -5.34375 33.625 -5.46875 C 33.976562 -5.59375 34.347656 -5.738281 34.734375 -5.90625 L 33.796875 0 L 8.875 0 C 6.09375 0 4.195312 -0.601562 3.1875 -1.8125 C 2.1875 -3.03125 1.6875 -4.925781 1.6875 -7.5 L 1.6875 -17.3125 C 1.6875 -19.914062 2.1875 -21.816406 3.1875 -23.015625 C 4.195312 -24.210938 6.09375 -24.8125 8.875 -24.8125 L 27.921875 -24.8125 C 30.742188 -24.8125 32.644531 -24.210938 33.625 -23.015625 C 34.613281 -21.816406 35.109375 -19.914062 35.109375 -17.3125 Z M 14.15625 -14.578125 L 22.859375 -14.578125 L 22.859375 -17.953125 C 22.859375 -18.648438 22.734375 -19.15625 22.484375 -19.46875 C 22.242188 -19.789062 21.769531 -19.953125 21.0625 -19.953125 L 15.9375 -19.953125 C 15.269531 -19.953125 14.804688 -19.789062 14.546875 -19.46875 C 14.285156 -19.15625 14.15625 -18.648438 14.15625 -17.953125 Z M 14.15625 -14.578125 "/></g></g></g><g fill="#000000" fill-opacity="1"><g transform="translate(175.15954, 346.865199)"><g><path d="M 0.890625 -33.890625 L 14.734375 -33.890625 L 14.734375 -22.390625 L 14.828125 -22.390625 C 15.179688 -22.878906 15.472656 -23.28125 15.703125 -23.59375 C 15.929688 -23.914062 16.148438 -24.164062 16.359375 -24.34375 C 16.535156 -24.519531 16.738281 -24.640625 16.96875 -24.703125 C 17.195312 -24.773438 17.488281 -24.8125 17.84375 -24.8125 L 27.671875 -24.8125 C 30.585938 -24.8125 32.695312 -24 34 -22.375 C 35.300781 -20.757812 35.953125 -18.5625 35.953125 -15.78125 L 35.953125 -5.703125 C 35.953125 -4.148438 36.066406 -3.015625 36.296875 -2.296875 C 36.523438 -1.578125 36.796875 -0.9375 37.109375 -0.375 C 37.148438 -0.300781 37.1875 -0.238281 37.21875 -0.1875 C 37.257812 -0.132812 37.296875 -0.0703125 37.328125 0 L 22.015625 0 C 22.046875 -0.0703125 22.078125 -0.132812 22.109375 -0.1875 C 22.148438 -0.238281 22.191406 -0.300781 22.234375 -0.375 C 22.546875 -0.9375 22.816406 -1.578125 23.046875 -2.296875 C 23.273438 -3.015625 23.390625 -4.148438 23.390625 -5.703125 L 23.390625 -17.890625 C 23.390625 -18.671875 23.238281 -19.207031 22.9375 -19.5 C 22.632812 -19.800781 22.097656 -19.953125 21.328125 -19.953125 L 16.796875 -19.953125 C 16.015625 -19.953125 15.472656 -19.800781 15.171875 -19.5 C 14.878906 -19.207031 14.734375 -18.671875 14.734375 -17.890625 L 14.734375 -5.703125 C 14.734375 -4.148438 14.847656 -3.015625 15.078125 -2.296875 C 15.304688 -1.578125 15.578125 -0.9375 15.890625 -0.375 C 15.921875 -0.300781 15.953125 -0.238281 15.984375 -0.1875 C 16.023438 -0.132812 16.066406 -0.0703125 16.109375 0 L 0.890625 0 C 0.929688 -0.0703125 0.96875 -0.132812 1 -0.1875 C 1.039062 -0.238281 1.078125 -0.300781 1.109375 -0.375 C 1.421875 -0.9375 1.691406 -1.578125 1.921875 -2.296875 C 2.148438 -3.015625 2.265625 -4.148438 2.265625 -5.703125 L 2.265625 -28.1875 C 2.265625 -29.738281 2.148438 -30.875 1.921875 -31.59375 C 1.691406 -32.320312 1.421875 -32.96875 1.109375 -33.53125 C 1.078125 -33.59375 1.039062 -33.648438 1 -33.703125 C 0.96875 -33.765625 0.929688 -33.828125 0.890625 -33.890625 Z M 0.890625 -33.890625 "/></g></g></g><g fill="#000000" fill-opacity="1"><g transform="translate(213.38546, 346.865199)"><g><path d="M 3.0625 -5.703125 L 3.0625 -19.109375 C 3.0625 -20.660156 2.945312 -21.796875 2.71875 -22.515625 C 2.488281 -23.234375 2.21875 -23.875 1.90625 -24.4375 C 1.863281 -24.507812 1.828125 -24.570312 1.796875 -24.625 C 1.765625 -24.675781 1.726562 -24.738281 1.6875 -24.8125 L 15.515625 -24.8125 L 15.515625 -5.703125 C 15.515625 -4.148438 15.628906 -3.015625 15.859375 -2.296875 C 16.085938 -1.578125 16.363281 -0.9375 16.6875 -0.375 C 16.71875 -0.300781 16.75 -0.238281 16.78125 -0.1875 C 16.820312 -0.132812 16.859375 -0.0703125 16.890625 0 L 1.6875 0 C 1.726562 -0.0703125 1.765625 -0.132812 1.796875 -0.1875 C 1.828125 -0.238281 1.863281 -0.300781 1.90625 -0.375 C 2.21875 -0.9375 2.488281 -1.578125 2.71875 -2.296875 C 2.945312 -3.015625 3.0625 -4.148438 3.0625 -5.703125 Z M 3.171875 -33.890625 L 15.421875 -33.890625 L 15.421875 -27.34375 L 3.171875 -27.34375 Z M 3.171875 -33.890625 "/></g></g></g><g fill="#000000" fill-opacity="1"><g transform="translate(231.970436, 346.865199)"><g><path d="M 14.15625 -17.421875 L 14.15625 -7.390625 C 14.1875 -6.515625 14.421875 -5.875 14.859375 -5.46875 C 15.296875 -5.0625 16.007812 -4.859375 17 -4.859375 L 23.078125 -4.859375 C 24.972656 -4.859375 26.332031 -4.953125 27.15625 -5.140625 C 27.988281 -5.335938 28.722656 -5.578125 29.359375 -5.859375 C 29.421875 -5.890625 29.488281 -5.921875 29.5625 -5.953125 C 29.632812 -5.992188 29.707031 -6.035156 29.78125 -6.078125 L 28.875 0 L 9.5 0 C 6.65625 0 4.640625 -0.71875 3.453125 -2.15625 C 2.273438 -3.601562 1.6875 -5.453125 1.6875 -7.703125 L 1.6875 -17.109375 C 1.6875 -19.390625 2.273438 -21.242188 3.453125 -22.671875 C 4.640625 -24.097656 6.65625 -24.8125 9.5 -24.8125 L 28.984375 -24.8125 L 30.09375 -18.640625 C 29.632812 -19.097656 28.910156 -19.429688 27.921875 -19.640625 C 26.941406 -19.847656 25.675781 -19.953125 24.125 -19.953125 L 17 -19.953125 C 16.007812 -19.953125 15.296875 -19.757812 14.859375 -19.375 C 14.421875 -18.988281 14.1875 -18.335938 14.15625 -17.421875 Z M 14.15625 -17.421875 "/></g></g></g><g fill="#000000" fill-opacity="1"><g transform="translate(263.385383, 346.865199)"><g><path d="M 3.0625 -5.703125 L 3.0625 -28.1875 C 3.0625 -29.738281 2.945312 -30.875 2.71875 -31.59375 C 2.488281 -32.320312 2.21875 -32.96875 1.90625 -33.53125 C 1.863281 -33.59375 1.828125 -33.648438 1.796875 -33.703125 C 1.765625 -33.765625 1.726562 -33.828125 1.6875 -33.890625 L 15.515625 -33.890625 L 15.515625 -5.703125 C 15.515625 -4.148438 15.628906 -3.015625 15.859375 -2.296875 C 16.085938 -1.578125 16.363281 -0.9375 16.6875 -0.375 C 16.71875 -0.300781 16.75 -0.238281 16.78125 -0.1875 C 16.820312 -0.132812 16.859375 -0.0703125 16.890625 0 L 1.6875 0 C 1.726562 -0.0703125 1.765625 -0.132812 1.796875 -0.1875 C 1.828125 -0.238281 1.863281 -0.300781 1.90625 -0.375 C 2.21875 -0.9375 2.488281 -1.578125 2.71875 -2.296875 C 2.945312 -3.015625 3.0625 -4.148438 3.0625 -5.703125 Z M 3.0625 -5.703125 "/></g></g></g><g fill="#000000" fill-opacity="1"><g transform="translate(281.970359, 346.865199)"><g><path d="M 35.109375 -9.71875 L 14.15625 -9.71875 L 14.15625 -7.390625 C 14.1875 -6.515625 14.421875 -5.875 14.859375 -5.46875 C 15.296875 -5.0625 16.007812 -4.859375 17 -4.859375 L 29.09375 -4.859375 C 29.789062 -4.859375 30.410156 -4.875 30.953125 -4.90625 C 31.503906 -4.945312 32.046875 -5.035156 32.578125 -5.171875 C 32.929688 -5.242188 33.28125 -5.34375 33.625 -5.46875 C 33.976562 -5.59375 34.347656 -5.738281 34.734375 -5.90625 L 33.796875 0 L 8.875 0 C 6.09375 0 4.195312 -0.601562 3.1875 -1.8125 C 2.1875 -3.03125 1.6875 -4.925781 1.6875 -7.5 L 1.6875 -17.3125 C 1.6875 -19.914062 2.1875 -21.816406 3.1875 -23.015625 C 4.195312 -24.210938 6.09375 -24.8125 8.875 -24.8125 L 27.921875 -24.8125 C 30.742188 -24.8125 32.644531 -24.210938 33.625 -23.015625 C 34.613281 -21.816406 35.109375 -19.914062 35.109375 -17.3125 Z M 14.15625 -14.578125 L 22.859375 -14.578125 L 22.859375 -17.953125 C 22.859375 -18.648438 22.734375 -19.15625 22.484375 -19.46875 C 22.242188 -19.789062 21.769531 -19.953125 21.0625 -19.953125 L 15.9375 -19.953125 C 15.269531 -19.953125 14.804688 -19.789062 14.546875 -19.46875 C 14.285156 -19.15625 14.15625 -18.648438 14.15625 -17.953125 Z M 14.15625 -14.578125 "/></g></g></g><g fill="#000000" fill-opacity="1"><g transform="translate(319.245909, 346.865199)"><g><path d="M 15.515625 -17.421875 L 26.296875 -17.421875 C 29.210938 -17.421875 31.066406 -16.8125 31.859375 -15.59375 C 32.648438 -14.382812 33.082031 -13.023438 33.15625 -11.515625 L 33.15625 -6.546875 C 33.15625 -6.441406 33.15625 -6.34375 33.15625 -6.25 C 33.15625 -6.164062 33.15625 -6.070312 33.15625 -5.96875 C 33.050781 -4.488281 32.4375 -3.125 31.3125 -1.875 C 30.1875 -0.625 28.285156 0 25.609375 0 L 2.484375 0 L 1.53125 -5.96875 C 1.8125 -5.820312 2.082031 -5.695312 2.34375 -5.59375 C 2.613281 -5.488281 2.890625 -5.382812 3.171875 -5.28125 C 3.867188 -5 4.65625 -4.804688 5.53125 -4.703125 C 6.414062 -4.597656 7.671875 -4.546875 9.296875 -4.546875 L 19.796875 -4.546875 C 20.429688 -4.546875 20.863281 -4.640625 21.09375 -4.828125 C 21.320312 -5.023438 21.4375 -5.367188 21.4375 -5.859375 L 21.4375 -6.390625 C 21.4375 -6.878906 21.320312 -7.21875 21.09375 -7.40625 C 20.863281 -7.601562 20.429688 -7.703125 19.796875 -7.703125 L 8.96875 -7.703125 C 6.125 -7.703125 4.304688 -8.316406 3.515625 -9.546875 C 2.722656 -10.785156 2.289062 -12.160156 2.21875 -13.671875 L 2.21875 -18.484375 C 2.21875 -20.378906 2.9375 -21.90625 4.375 -23.0625 C 5.820312 -24.226562 7.722656 -24.8125 10.078125 -24.8125 L 31.625 -24.8125 L 32.6875 -18.640625 C 32.257812 -19.128906 31.472656 -19.503906 30.328125 -19.765625 C 29.179688 -20.035156 27.957031 -20.1875 26.65625 -20.21875 C 26.414062 -20.257812 26.171875 -20.28125 25.921875 -20.28125 C 25.671875 -20.28125 25.425781 -20.28125 25.1875 -20.28125 L 15.515625 -20.28125 C 14.921875 -20.28125 14.488281 -20.195312 14.21875 -20.03125 C 13.957031 -19.875 13.828125 -19.65625 13.828125 -19.375 L 13.828125 -18.328125 C 13.828125 -18.035156 13.957031 -17.8125 14.21875 -17.65625 C 14.488281 -17.5 14.921875 -17.421875 15.515625 -17.421875 Z M 15.515625 -17.421875 "/></g></g></g><g fill="#000000" fill-opacity="1"><g transform="translate(354.568892, 346.865199)"><g/></g></g><g fill="#000000" fill-opacity="1"><g transform="translate(375.107406, 346.865199)"><g/></g></g><g fill="#000000" fill-opacity="1"><g transform="translate(395.648438, 346.865199)"><g><path d="M 17.109375 -8.453125 L 17.109375 -12.203125 L 9.875 -12.203125 C 7.09375 -12.203125 5.101562 -12.742188 3.90625 -13.828125 C 2.707031 -14.921875 2.109375 -16.539062 2.109375 -18.6875 L 2.109375 -24.609375 C 2.109375 -26.710938 2.632812 -28.3125 3.6875 -29.40625 C 4.75 -30.5 6.507812 -31.046875 8.96875 -31.046875 L 17.109375 -31.046875 L 17.109375 -35.90625 L 21.21875 -35.90625 L 21.21875 -31.046875 L 34.84375 -31.046875 L 35.6875 -25.234375 C 34.769531 -25.554688 33.925781 -25.773438 33.15625 -25.890625 C 32.382812 -26.015625 31.75 -26.078125 31.25 -26.078125 L 21.21875 -26.078125 L 21.21875 -22.75 L 28.609375 -22.75 C 31.210938 -22.75 33.113281 -22.25 34.3125 -21.25 C 35.507812 -20.25 36.109375 -18.816406 36.109375 -16.953125 L 36.109375 -10.1875 C 36.109375 -8.144531 35.585938 -6.535156 34.546875 -5.359375 C 33.515625 -4.179688 31.765625 -3.59375 29.296875 -3.59375 L 21.21875 -3.59375 L 21.21875 1.640625 L 17.109375 1.640625 L 17.109375 -3.59375 L 3.171875 -3.59375 L 2.109375 -9.8125 C 2.285156 -9.75 2.441406 -9.671875 2.578125 -9.578125 C 2.722656 -9.492188 2.867188 -9.414062 3.015625 -9.34375 C 3.578125 -9.0625 4.164062 -8.84375 4.78125 -8.6875 C 5.394531 -8.53125 6.210938 -8.453125 7.234375 -8.453125 Z M 21.21875 -12.203125 L 21.21875 -8.453125 L 24.5 -8.453125 C 24.851562 -8.453125 25.113281 -8.53125 25.28125 -8.6875 C 25.457031 -8.84375 25.546875 -9.0625 25.546875 -9.34375 L 25.546875 -11.296875 C 25.546875 -11.578125 25.457031 -11.796875 25.28125 -11.953125 C 25.113281 -12.117188 24.851562 -12.203125 24.5 -12.203125 Z M 17.109375 -22.75 L 17.109375 -26.078125 L 13.625 -26.078125 C 13.269531 -26.078125 13.003906 -26 12.828125 -25.84375 C 12.648438 -25.6875 12.5625 -25.46875 12.5625 -25.1875 L 12.5625 -23.65625 C 12.5625 -23.375 12.648438 -23.148438 12.828125 -22.984375 C 13.003906 -22.828125 13.269531 -22.75 13.625 -22.75 Z M 17.109375 -22.75 "/></g></g></g><g fill="#000000" fill-opacity="1"><g transform="translate(433.874357, 346.865199)"><g><path d="M 15 -5.59375 L 30.359375 -5.59375 C 31.304688 -5.59375 32.078125 -5.628906 32.671875 -5.703125 C 33.273438 -5.773438 33.859375 -5.878906 34.421875 -6.015625 C 34.847656 -6.117188 35.289062 -6.257812 35.75 -6.4375 C 36.207031 -6.613281 36.75 -6.828125 37.375 -7.078125 L 36.171875 0 L 2.109375 0 L 2.109375 -15.046875 C 2.109375 -17.929688 2.632812 -19.804688 3.6875 -20.671875 C 4.75 -21.535156 6.40625 -22.035156 8.65625 -22.171875 L 22.390625 -22.90625 C 23.191406 -22.945312 23.722656 -23.097656 23.984375 -23.359375 C 24.253906 -23.628906 24.390625 -24.097656 24.390625 -24.765625 L 24.390625 -26.71875 C 24.390625 -27.207031 24.210938 -27.59375 23.859375 -27.875 C 23.515625 -28.15625 22.863281 -28.296875 21.90625 -28.296875 L 7.125 -28.296875 C 6.175781 -28.296875 5.257812 -28.195312 4.375 -28 C 3.5 -27.8125 2.65625 -27.503906 1.84375 -27.078125 L 2.953125 -33.890625 L 27.984375 -33.890625 C 31.785156 -33.890625 34.226562 -33.191406 35.3125 -31.796875 C 36.40625 -30.410156 36.953125 -28.503906 36.953125 -26.078125 L 36.953125 -19.328125 C 36.953125 -16.785156 36.394531 -15.066406 35.28125 -14.171875 C 34.175781 -13.273438 32.21875 -12.757812 29.40625 -12.625 L 16.53125 -11.984375 C 15.851562 -11.953125 15.425781 -11.710938 15.25 -11.265625 C 15.082031 -10.828125 15 -10.328125 15 -9.765625 Z M 15 -5.59375 "/></g></g></g><g fill="#000000" fill-opacity="1"><g transform="translate(473.103444, 346.865199)"><g><path d="M 10.875 -33.890625 L 30.3125 -33.890625 C 33.050781 -33.890625 35.160156 -33.140625 36.640625 -31.640625 C 38.117188 -30.148438 38.859375 -27.554688 38.859375 -23.859375 L 38.859375 -9.921875 C 38.859375 -6.296875 38.117188 -3.734375 36.640625 -2.234375 C 35.160156 -0.742188 33.050781 0 30.3125 0 L 10.875 0 C 8.132812 0 6.023438 -0.742188 4.546875 -2.234375 C 3.066406 -3.734375 2.328125 -6.296875 2.328125 -9.921875 L 2.328125 -23.859375 C 2.328125 -27.554688 3.066406 -30.148438 4.546875 -31.640625 C 6.023438 -33.140625 8.132812 -33.890625 10.875 -33.890625 Z M 23.34375 -28.296875 L 17.734375 -28.296875 C 16.890625 -28.296875 16.253906 -28.132812 15.828125 -27.8125 C 15.410156 -27.5 15.203125 -26.90625 15.203125 -26.03125 L 15.203125 -7.765625 C 15.203125 -6.953125 15.410156 -6.382812 15.828125 -6.0625 C 16.253906 -5.75 16.890625 -5.59375 17.734375 -5.59375 L 23.34375 -5.59375 C 24.1875 -5.59375 24.816406 -5.75 25.234375 -6.0625 C 25.660156 -6.382812 25.875 -6.953125 25.875 -7.765625 L 25.875 -26.03125 C 25.875 -26.90625 25.660156 -27.5 25.234375 -27.8125 C 24.816406 -28.132812 24.1875 -28.296875 23.34375 -28.296875 Z M 23.34375 -28.296875 "/></g></g></g><path stroke-linecap="butt" transform="matrix(0.75, 0, 0, 0.75, 162.620252, 171.525116)" fill="none" stroke-linejoin="miter" d="M 0.00112224 9.997763 L 433.652183 9.997763 " stroke="#000000" stroke-width="20" stroke-opacity="1" stroke-miterlimit="4"/><path stroke-linecap="butt" transform="matrix(0.75, 0, 0, 0.75, 0.000000944445, 171.525116)" fill="none" stroke-linejoin="miter" d="M -0.00000125926 9.997763 L 433.656268 9.997763 " stroke="#000000" stroke-width="20" stroke-opacity="1" stroke-miterlimit="4"/><path stroke-linecap="butt" transform="matrix(0.75, 0, 0, 0.75, 359.865834, 171.525116)" fill="none" stroke-linejoin="miter" d="M 0.00180408 9.997763 L 433.652865 9.997763 " stroke="#000000" stroke-width="20" stroke-opacity="1" stroke-miterlimit="4"/><g fill="#000000" fill-opacity="1"><g transform="translate(156.996232, 505.34008)"><g><path d="M 2.390625 -4.875 L 2.390625 -23.578125 C 2.390625 -24.898438 2.316406 -25.894531 2.171875 -26.5625 C 2.023438 -27.226562 1.816406 -27.828125 1.546875 -28.359375 C 1.546875 -28.390625 1.535156 -28.410156 1.515625 -28.421875 C 1.503906 -28.441406 1.5 -28.453125 1.5 -28.453125 L 24.8125 -28.453125 C 27.800781 -28.453125 29.773438 -27.910156 30.734375 -26.828125 C 31.691406 -25.753906 32.171875 -24.34375 32.171875 -22.59375 L 32.171875 -19.28125 C 32.171875 -17.476562 31.640625 -16.3125 30.578125 -15.78125 C 29.515625 -15.25 27.992188 -14.90625 26.015625 -14.75 L 26.015625 -14.671875 C 26.046875 -14.671875 26.082031 -14.660156 26.125 -14.640625 C 26.164062 -14.628906 26.21875 -14.625 26.28125 -14.625 C 28.519531 -14.351562 30.0625 -13.972656 30.90625 -13.484375 C 31.75 -13.003906 32.171875 -12.023438 32.171875 -10.546875 L 32.171875 -5.84375 C 32.171875 -4.132812 31.691406 -2.734375 30.734375 -1.640625 C 29.773438 -0.546875 27.800781 0 24.8125 0 L 1.5 0 C 1.5 0 1.503906 -0.00390625 1.515625 -0.015625 C 1.535156 -0.0351562 1.546875 -0.0625 1.546875 -0.09375 C 1.816406 -0.625 2.023438 -1.21875 2.171875 -1.875 C 2.316406 -2.539062 2.390625 -3.539062 2.390625 -4.875 Z M 13.203125 -12.3125 L 13.203125 -4.703125 L 19.5 -4.703125 C 20.175781 -4.703125 20.640625 -4.796875 20.890625 -4.984375 C 21.140625 -5.171875 21.265625 -5.609375 21.265625 -6.296875 L 21.265625 -10.71875 C 21.265625 -11.40625 21.140625 -11.84375 20.890625 -12.03125 C 20.640625 -12.21875 20.175781 -12.3125 19.5 -12.3125 Z M 13.203125 -23.75 L 13.203125 -17.015625 L 19.5 -17.015625 C 20.175781 -17.015625 20.640625 -17.109375 20.890625 -17.296875 C 21.140625 -17.492188 21.265625 -17.929688 21.265625 -18.609375 L 21.265625 -22.0625 C 21.265625 -22.800781 21.140625 -23.265625 20.890625 -23.453125 C 20.640625 -23.648438 20.175781 -23.75 19.5 -23.75 Z M 13.203125 -23.75 "/></g></g></g><g fill="#000000" fill-opacity="1"><g transform="translate(190.719574, 505.34008)"><g><path d="M 31.328125 0 L 20.421875 0 L 20.125 -2.171875 L 20.03125 -2.171875 C 20.03125 -2.140625 20.019531 -2.113281 20 -2.09375 C 19.988281 -2.082031 19.984375 -2.0625 19.984375 -2.03125 C 19.742188 -1.53125 19.425781 -1.066406 19.03125 -0.640625 C 18.632812 -0.210938 18.066406 0 17.328125 0 L 8.859375 0 C 6.410156 0 4.640625 -0.675781 3.546875 -2.03125 C 2.453125 -3.394531 1.90625 -5.242188 1.90625 -7.578125 L 1.90625 -16.046875 C 1.90625 -17.335938 1.804688 -18.285156 1.609375 -18.890625 C 1.421875 -19.503906 1.195312 -20.046875 0.9375 -20.515625 C 0.90625 -20.578125 0.875 -20.628906 0.84375 -20.671875 C 0.8125 -20.710938 0.78125 -20.765625 0.75 -20.828125 L 12.359375 -20.828125 L 12.359375 -5.8125 C 12.359375 -5.15625 12.484375 -4.703125 12.734375 -4.453125 C 12.984375 -4.203125 13.4375 -4.078125 14.09375 -4.078125 L 17.90625 -4.078125 C 18.550781 -4.078125 19 -4.203125 19.25 -4.453125 C 19.5 -4.703125 19.625 -5.15625 19.625 -5.8125 L 19.625 -16.046875 C 19.625 -17.335938 19.523438 -18.285156 19.328125 -18.890625 C 19.140625 -19.503906 18.914062 -20.046875 18.65625 -20.515625 C 18.625 -20.578125 18.59375 -20.628906 18.5625 -20.671875 C 18.53125 -20.710938 18.503906 -20.765625 18.484375 -20.828125 L 30.171875 -20.828125 L 30.171875 -4.78125 C 30.171875 -3.488281 30.265625 -2.535156 30.453125 -1.921875 C 30.648438 -1.316406 30.882812 -0.78125 31.15625 -0.3125 C 31.1875 -0.25 31.210938 -0.195312 31.234375 -0.15625 C 31.265625 -0.113281 31.296875 -0.0625 31.328125 0 Z M 31.328125 0 "/></g></g></g><g fill="#000000" fill-opacity="1"><g transform="translate(222.803273, 505.34008)"><g><path d="M 15.734375 0 L 8.859375 0 C 6.410156 0 4.640625 -0.675781 3.546875 -2.03125 C 2.453125 -3.394531 1.90625 -5.242188 1.90625 -7.578125 L 1.90625 -16.046875 C 1.90625 -17.335938 1.804688 -18.285156 1.609375 -18.890625 C 1.421875 -19.503906 1.195312 -20.046875 0.9375 -20.515625 C 0.90625 -20.578125 0.875 -20.628906 0.84375 -20.671875 C 0.8125 -20.710938 0.78125 -20.765625 0.75 -20.828125 L 12.359375 -20.828125 L 12.359375 -5.8125 C 12.359375 -5.15625 12.484375 -4.703125 12.734375 -4.453125 C 12.984375 -4.203125 13.4375 -4.078125 14.09375 -4.078125 L 17.953125 -4.078125 C 18.453125 -4.078125 18.78125 -4.164062 18.9375 -4.34375 C 19.101562 -4.519531 19.1875 -5.019531 19.1875 -5.84375 L 19.1875 -16.890625 C 19.1875 -17.953125 19.140625 -18.703125 19.046875 -19.140625 C 18.960938 -19.585938 18.832031 -19.988281 18.65625 -20.34375 C 18.59375 -20.394531 18.539062 -20.460938 18.5 -20.546875 C 18.457031 -20.640625 18.40625 -20.734375 18.34375 -20.828125 L 29.734375 -20.828125 L 29.734375 1.953125 C 29.734375 3.898438 29.242188 5.367188 28.265625 6.359375 C 27.296875 7.347656 25.847656 7.84375 23.921875 7.84375 L 3.328125 7.890625 L 2.53125 2.796875 C 2.550781 2.796875 2.582031 2.800781 2.625 2.8125 C 2.675781 2.832031 2.71875 2.851562 2.75 2.875 C 3.21875 3.082031 3.757812 3.28125 4.375 3.46875 C 5 3.664062 5.890625 3.765625 7.046875 3.765625 L 17.0625 3.8125 C 17.945312 3.78125 18.519531 3.640625 18.78125 3.390625 C 19.050781 3.140625 19.1875 2.765625 19.1875 2.265625 L 19.1875 -2.03125 L 19.09375 -2.03125 C 19.09375 -2.007812 19.082031 -1.984375 19.0625 -1.953125 C 19.050781 -1.921875 19.046875 -1.890625 19.046875 -1.859375 C 18.816406 -1.265625 18.5 -0.804688 18.09375 -0.484375 C 17.695312 -0.160156 16.910156 0 15.734375 0 Z M 15.734375 0 "/></g></g></g><g fill="#000000" fill-opacity="1"><g transform="translate(254.886973, 505.34008)"><g/></g></g><g fill="#000000" fill-opacity="1"><g transform="translate(272.125316, 505.34008)"><g><path d="M 3.140625 -20.828125 L 22.296875 -20.828125 C 24.804688 -20.828125 26.597656 -20.234375 27.671875 -19.046875 C 28.753906 -17.867188 29.296875 -15.847656 29.296875 -12.984375 L 29.296875 -3.90625 C 29.296875 -2.832031 29.390625 -2.015625 29.578125 -1.453125 C 29.765625 -0.898438 30.007812 -0.414062 30.3125 0 L 19.765625 0 L 19.234375 -2.296875 L 19.140625 -2.296875 C 18.878906 -1.390625 18.457031 -0.78125 17.875 -0.46875 C 17.300781 -0.15625 16.304688 0 14.890625 0 L 7.4375 0 C 5.101562 0 3.515625 -0.507812 2.671875 -1.53125 C 1.835938 -2.550781 1.421875 -4.140625 1.421875 -6.296875 L 1.421875 -7.796875 C 1.421875 -9.984375 1.835938 -11.578125 2.671875 -12.578125 C 3.515625 -13.585938 5.101562 -14.09375 7.4375 -14.09375 L 16.96875 -14.09375 C 17.707031 -14.09375 18.1875 -14.195312 18.40625 -14.40625 C 18.632812 -14.613281 18.75 -14.953125 18.75 -15.421875 C 18.75 -15.890625 18.632812 -16.226562 18.40625 -16.4375 C 18.1875 -16.644531 17.707031 -16.75 16.96875 -16.75 L 6.5625 -16.75 C 5.789062 -16.75 5.144531 -16.703125 4.625 -16.609375 C 4.113281 -16.523438 3.617188 -16.394531 3.140625 -16.21875 C 3.023438 -16.15625 2.90625 -16.09375 2.78125 -16.03125 C 2.664062 -15.976562 2.535156 -15.921875 2.390625 -15.859375 Z M 18.75 -10.015625 L 14.09375 -10.015625 C 13.289062 -9.984375 12.71875 -9.867188 12.375 -9.671875 C 12.039062 -9.484375 11.875 -9.003906 11.875 -8.234375 L 11.875 -5.84375 C 11.875 -5.101562 12.039062 -4.628906 12.375 -4.421875 C 12.71875 -4.222656 13.289062 -4.109375 14.09375 -4.078125 L 16.53125 -4.078125 C 17.53125 -4.078125 18.148438 -4.238281 18.390625 -4.5625 C 18.628906 -4.882812 18.75 -5.710938 18.75 -7.046875 Z M 18.75 -10.015625 "/></g></g></g><g fill="#000000" fill-opacity="1"><g transform="translate(303.411358, 505.34008)"><g/></g></g><g fill="#000000" fill-opacity="1"><g transform="translate(320.649701, 505.34008)"><g><path d="M 0.890625 -28.453125 L 27.921875 -28.453125 L 28.796875 -22.59375 C 28.648438 -22.6875 28.507812 -22.769531 28.375 -22.84375 C 28.25 -22.914062 28.125 -23 28 -23.09375 C 27.5625 -23.289062 27.101562 -23.445312 26.625 -23.5625 C 26.15625 -23.6875 25.535156 -23.75 24.765625 -23.75 L 19.765625 -23.75 L 19.765625 -4.875 C 19.765625 -3.539062 19.835938 -2.539062 19.984375 -1.875 C 20.128906 -1.21875 20.335938 -0.625 20.609375 -0.09375 C 20.609375 -0.0625 20.613281 -0.0351562 20.625 -0.015625 C 20.644531 -0.00390625 20.65625 0 20.65625 0 L 8.0625 0 C 8.0625 0 8.066406 -0.00390625 8.078125 -0.015625 C 8.097656 -0.0351562 8.109375 -0.0625 8.109375 -0.09375 C 8.378906 -0.625 8.585938 -1.21875 8.734375 -1.875 C 8.878906 -2.539062 8.953125 -3.539062 8.953125 -4.875 L 8.953125 -23.75 L 4.03125 -23.75 C 3.257812 -23.75 2.640625 -23.6875 2.171875 -23.5625 C 1.703125 -23.445312 1.242188 -23.289062 0.796875 -23.09375 C 0.679688 -23 0.554688 -22.914062 0.421875 -22.84375 C 0.285156 -22.769531 0.144531 -22.6875 0 -22.59375 Z M 0.890625 -28.453125 "/></g></g></g><g fill="#000000" fill-opacity="1"><g transform="translate(349.45413, 505.34008)"><g><path d="M 1.640625 -6.6875 L 1.640625 -14.140625 L 17.234375 -14.140625 L 17.234375 -6.6875 Z M 1.640625 -6.6875 "/></g></g></g><g fill="#000000" fill-opacity="1"><g transform="translate(368.332114, 505.34008)"><g><path d="M 13.03125 -14.625 L 22.0625 -14.625 C 24.519531 -14.625 26.078125 -14.113281 26.734375 -13.09375 C 27.398438 -12.070312 27.765625 -10.925781 27.828125 -9.65625 L 27.828125 -5.5 C 27.828125 -5.40625 27.828125 -5.320312 27.828125 -5.25 C 27.828125 -5.175781 27.828125 -5.09375 27.828125 -5 C 27.734375 -3.757812 27.210938 -2.613281 26.265625 -1.5625 C 25.328125 -0.519531 23.734375 0 21.484375 0 L 2.078125 0 L 1.28125 -5 C 1.519531 -4.882812 1.75 -4.78125 1.96875 -4.6875 C 2.1875 -4.601562 2.414062 -4.519531 2.65625 -4.4375 C 3.25 -4.195312 3.914062 -4.03125 4.65625 -3.9375 C 5.394531 -3.851562 6.441406 -3.8125 7.796875 -3.8125 L 16.609375 -3.8125 C 17.148438 -3.8125 17.515625 -3.890625 17.703125 -4.046875 C 17.890625 -4.210938 17.984375 -4.503906 17.984375 -4.921875 L 17.984375 -5.359375 C 17.984375 -5.773438 17.890625 -6.0625 17.703125 -6.21875 C 17.515625 -6.382812 17.148438 -6.46875 16.609375 -6.46875 L 7.53125 -6.46875 C 5.132812 -6.46875 3.601562 -6.984375 2.9375 -8.015625 C 2.28125 -9.054688 1.921875 -10.210938 1.859375 -11.484375 L 1.859375 -15.515625 C 1.859375 -17.109375 2.460938 -18.390625 3.671875 -19.359375 C 4.890625 -20.335938 6.488281 -20.828125 8.46875 -20.828125 L 26.546875 -20.828125 L 27.421875 -15.640625 C 27.066406 -16.054688 26.410156 -16.375 25.453125 -16.59375 C 24.492188 -16.8125 23.46875 -16.9375 22.375 -16.96875 C 22.164062 -17 21.957031 -17.015625 21.75 -17.015625 C 21.550781 -17.015625 21.347656 -17.015625 21.140625 -17.015625 L 13.03125 -17.015625 C 12.53125 -17.015625 12.164062 -16.945312 11.9375 -16.8125 C 11.71875 -16.675781 11.609375 -16.492188 11.609375 -16.265625 L 11.609375 -15.375 C 11.609375 -15.132812 11.71875 -14.945312 11.9375 -14.8125 C 12.164062 -14.6875 12.53125 -14.625 13.03125 -14.625 Z M 13.03125 -14.625 "/></g></g></g><g fill="#000000" fill-opacity="1"><g transform="translate(397.978515, 505.34008)"><g><path d="M 0.75 -28.453125 L 12.359375 -28.453125 L 12.359375 -18.78125 L 12.453125 -18.78125 C 12.742188 -19.195312 12.984375 -19.535156 13.171875 -19.796875 C 13.367188 -20.066406 13.554688 -20.273438 13.734375 -20.421875 C 13.878906 -20.578125 14.046875 -20.679688 14.234375 -20.734375 C 14.429688 -20.796875 14.679688 -20.828125 14.984375 -20.828125 L 23.21875 -20.828125 C 25.664062 -20.828125 27.4375 -20.144531 28.53125 -18.78125 C 29.625 -17.425781 30.171875 -15.582031 30.171875 -13.25 L 30.171875 -4.78125 C 30.171875 -3.488281 30.265625 -2.535156 30.453125 -1.921875 C 30.648438 -1.316406 30.882812 -0.78125 31.15625 -0.3125 C 31.1875 -0.25 31.210938 -0.195312 31.234375 -0.15625 C 31.265625 -0.113281 31.296875 -0.0625 31.328125 0 L 18.484375 0 C 18.503906 -0.0625 18.53125 -0.113281 18.5625 -0.15625 C 18.59375 -0.195312 18.625 -0.25 18.65625 -0.3125 C 18.914062 -0.78125 19.140625 -1.316406 19.328125 -1.921875 C 19.523438 -2.535156 19.625 -3.488281 19.625 -4.78125 L 19.625 -15.015625 C 19.625 -15.671875 19.5 -16.125 19.25 -16.375 C 19 -16.625 18.550781 -16.75 17.90625 -16.75 L 14.09375 -16.75 C 13.4375 -16.75 12.984375 -16.625 12.734375 -16.375 C 12.484375 -16.125 12.359375 -15.671875 12.359375 -15.015625 L 12.359375 -4.78125 C 12.359375 -3.488281 12.453125 -2.535156 12.640625 -1.921875 C 12.835938 -1.316406 13.070312 -0.78125 13.34375 -0.3125 C 13.363281 -0.25 13.390625 -0.195312 13.421875 -0.15625 C 13.453125 -0.113281 13.484375 -0.0625 13.515625 0 L 0.75 0 C 0.78125 -0.0625 0.8125 -0.113281 0.84375 -0.15625 C 0.875 -0.195312 0.90625 -0.25 0.9375 -0.3125 C 1.195312 -0.78125 1.421875 -1.316406 1.609375 -1.921875 C 1.804688 -2.535156 1.90625 -3.488281 1.90625 -4.78125 L 1.90625 -23.65625 C 1.90625 -24.957031 1.804688 -25.910156 1.609375 -26.515625 C 1.421875 -27.117188 1.195312 -27.660156 0.9375 -28.140625 C 0.90625 -28.203125 0.875 -28.253906 0.84375 -28.296875 C 0.8125 -28.335938 0.78125 -28.390625 0.75 -28.453125 Z M 0.75 -28.453125 "/></g></g></g><g fill="#000000" fill-opacity="1"><g transform="translate(430.062226, 505.34008)"><g><path d="M 2.5625 -4.78125 L 2.5625 -16.046875 C 2.5625 -17.335938 2.46875 -18.285156 2.28125 -18.890625 C 2.09375 -19.503906 1.863281 -20.046875 1.59375 -20.515625 C 1.5625 -20.578125 1.53125 -20.628906 1.5 -20.671875 C 1.476562 -20.710938 1.453125 -20.765625 1.421875 -20.828125 L 13.03125 -20.828125 L 13.03125 -4.78125 C 13.03125 -3.488281 13.125 -2.535156 13.3125 -1.921875 C 13.507812 -1.316406 13.738281 -0.78125 14 -0.3125 C 14.03125 -0.25 14.0625 -0.195312 14.09375 -0.15625 C 14.125 -0.113281 14.15625 -0.0625 14.1875 0 L 1.421875 0 C 1.453125 -0.0625 1.476562 -0.113281 1.5 -0.15625 C 1.53125 -0.195312 1.5625 -0.25 1.59375 -0.3125 C 1.863281 -0.78125 2.09375 -1.316406 2.28125 -1.921875 C 2.46875 -2.535156 2.5625 -3.488281 2.5625 -4.78125 Z M 2.65625 -28.453125 L 12.9375 -28.453125 L 12.9375 -22.953125 L 2.65625 -22.953125 Z M 2.65625 -28.453125 "/></g></g></g><g fill="#000000" fill-opacity="1"><g transform="translate(445.66094, 505.34008)"><g><path d="M 1.234375 -20.828125 L 11.703125 -20.828125 L 12.046875 -17.453125 L 12.140625 -17.453125 C 12.640625 -18.691406 13.25 -19.5625 13.96875 -20.0625 C 14.695312 -20.570312 15.875 -20.828125 17.5 -20.828125 L 22.6875 -20.828125 L 22.6875 -14 C 22.507812 -14.09375 22.347656 -14.179688 22.203125 -14.265625 C 22.054688 -14.359375 21.90625 -14.429688 21.75 -14.484375 C 21.34375 -14.691406 20.863281 -14.832031 20.3125 -14.90625 C 19.769531 -14.976562 18.921875 -15.015625 17.765625 -15.015625 C 15.703125 -15.015625 14.363281 -14.78125 13.75 -14.3125 C 13.144531 -13.84375 12.84375 -12.898438 12.84375 -11.484375 L 12.84375 -4.78125 C 12.84375 -3.488281 12.9375 -2.535156 13.125 -1.921875 C 13.320312 -1.316406 13.554688 -0.78125 13.828125 -0.3125 C 13.859375 -0.25 13.882812 -0.195312 13.90625 -0.15625 C 13.9375 -0.113281 13.96875 -0.0625 14 0 L 1.234375 0 C 1.265625 -0.0625 1.296875 -0.113281 1.328125 -0.15625 C 1.359375 -0.195312 1.390625 -0.25 1.421875 -0.3125 C 1.679688 -0.78125 1.90625 -1.316406 2.09375 -1.921875 C 2.289062 -2.535156 2.390625 -3.488281 2.390625 -4.78125 L 2.390625 -16.046875 C 2.390625 -17.335938 2.289062 -18.285156 2.09375 -18.890625 C 1.90625 -19.503906 1.679688 -20.046875 1.421875 -20.515625 C 1.390625 -20.578125 1.359375 -20.628906 1.328125 -20.671875 C 1.296875 -20.710938 1.265625 -20.765625 1.234375 -20.828125 Z M 1.234375 -20.828125 "/></g></g></g><g fill="#000000" fill-opacity="1"><g transform="translate(468.748797, 505.34008)"><g><path d="M 4.203125 -20.828125 L 4.203125 -25.171875 L 14.671875 -25.4375 L 14.671875 -20.828125 L 23.09375 -20.828125 L 23.09375 -16.75 L 14.671875 -16.75 L 14.671875 -5.765625 C 14.671875 -5.109375 14.785156 -4.660156 15.015625 -4.421875 C 15.253906 -4.191406 15.832031 -4.078125 16.75 -4.078125 L 20.421875 -4.078125 C 21.078125 -4.078125 21.65625 -4.117188 22.15625 -4.203125 C 22.65625 -4.296875 23.066406 -4.398438 23.390625 -4.515625 C 23.597656 -4.578125 23.773438 -4.644531 23.921875 -4.71875 C 24.078125 -4.789062 24.195312 -4.84375 24.28125 -4.875 L 23.625 0 L 10.40625 0 C 8.757812 0 7.3125 -0.429688 6.0625 -1.296875 C 4.820312 -2.171875 4.203125 -3.910156 4.203125 -6.515625 L 4.203125 -16.75 L -0.265625 -16.75 L -0.265625 -20.828125 Z M 4.203125 -20.828125 "/></g></g></g></svg>